<mxfile host="app.diagrams.net" agent="Mozilla/5.0 (Windows NT 10.0; Win64; x64) AppleWebKit/537.36 (KHTML, like Gecko) Chrome/128.0.0.0 Safari/537.36" version="24.7.7">
  <diagram name="Page-1" id="2YBvvXClWsGukQMizWep">
    <mxGraphModel dx="1114" dy="560" grid="1" gridSize="10" guides="1" tooltips="1" connect="1" arrows="1" fold="1" page="1" pageScale="1" pageWidth="850" pageHeight="1100" math="0" shadow="0">
      <root>
        <mxCell id="0" />
        <mxCell id="1" parent="0" />
        <mxCell id="aM9ryv3xv72pqoxQDRHE-1" value="&lt;font style=&quot;vertical-align: inherit;&quot;&gt;&lt;font style=&quot;vertical-align: inherit;&quot;&gt;Cliente&lt;/font&gt;&lt;/font&gt;" style="shape=umlLifeline;perimeter=lifelinePerimeter;whiteSpace=wrap;html=1;container=0;dropTarget=0;collapsible=0;recursiveResize=0;outlineConnect=0;portConstraint=eastwest;newEdgeStyle={&quot;edgeStyle&quot;:&quot;elbowEdgeStyle&quot;,&quot;elbow&quot;:&quot;vertical&quot;,&quot;curved&quot;:0,&quot;rounded&quot;:0};" parent="1" vertex="1">
          <mxGeometry x="30" y="40" width="100" height="300" as="geometry" />
        </mxCell>
        <mxCell id="aM9ryv3xv72pqoxQDRHE-5" value="&lt;font style=&quot;vertical-align: inherit;&quot;&gt;&lt;font style=&quot;vertical-align: inherit;&quot;&gt;Interface&lt;/font&gt;&lt;/font&gt;" style="shape=umlLifeline;perimeter=lifelinePerimeter;whiteSpace=wrap;html=1;container=0;dropTarget=0;collapsible=0;recursiveResize=0;outlineConnect=0;portConstraint=eastwest;newEdgeStyle={&quot;edgeStyle&quot;:&quot;elbowEdgeStyle&quot;,&quot;elbow&quot;:&quot;vertical&quot;,&quot;curved&quot;:0,&quot;rounded&quot;:0};" parent="1" vertex="1">
          <mxGeometry x="230" y="40" width="100" height="300" as="geometry" />
        </mxCell>
        <mxCell id="aM9ryv3xv72pqoxQDRHE-6" value="" style="html=1;points=[];perimeter=orthogonalPerimeter;outlineConnect=0;targetShapes=umlLifeline;portConstraint=eastwest;newEdgeStyle={&quot;edgeStyle&quot;:&quot;elbowEdgeStyle&quot;,&quot;elbow&quot;:&quot;vertical&quot;,&quot;curved&quot;:0,&quot;rounded&quot;:0};" parent="aM9ryv3xv72pqoxQDRHE-5" vertex="1">
          <mxGeometry x="45" y="80" width="10" height="170" as="geometry" />
        </mxCell>
        <mxCell id="aM9ryv3xv72pqoxQDRHE-9" value="&lt;font style=&quot;vertical-align: inherit;&quot;&gt;&lt;font style=&quot;vertical-align: inherit;&quot;&gt;4: Solicitar Registro De Usuario&lt;/font&gt;&lt;/font&gt;" style="html=1;verticalAlign=bottom;endArrow=block;edgeStyle=elbowEdgeStyle;elbow=vertical;curved=0;rounded=0;" parent="1" target="aM9ryv3xv72pqoxQDRHE-1" edge="1">
          <mxGeometry x="-0.0286" y="-10" relative="1" as="geometry">
            <mxPoint x="275" y="280" as="sourcePoint" />
            <Array as="points">
              <mxPoint x="190" y="280" />
            </Array>
            <mxPoint x="100" y="280" as="targetPoint" />
            <mxPoint as="offset" />
          </mxGeometry>
        </mxCell>
        <mxCell id="rdlnQNbEjitJNy3FlGEy-1" value="&lt;font style=&quot;vertical-align: inherit;&quot;&gt;&lt;font style=&quot;vertical-align: inherit;&quot;&gt;&lt;font style=&quot;vertical-align: inherit;&quot;&gt;&lt;font style=&quot;vertical-align: inherit;&quot;&gt;Gestion Usuarios&lt;/font&gt;&lt;/font&gt;&lt;/font&gt;&lt;/font&gt;" style="shape=umlLifeline;perimeter=lifelinePerimeter;whiteSpace=wrap;html=1;container=0;dropTarget=0;collapsible=0;recursiveResize=0;outlineConnect=0;portConstraint=eastwest;newEdgeStyle={&quot;edgeStyle&quot;:&quot;elbowEdgeStyle&quot;,&quot;elbow&quot;:&quot;vertical&quot;,&quot;curved&quot;:0,&quot;rounded&quot;:0};" vertex="1" parent="1">
          <mxGeometry x="400" y="40" width="100" height="300" as="geometry" />
        </mxCell>
        <mxCell id="rdlnQNbEjitJNy3FlGEy-2" value="" style="html=1;points=[];perimeter=orthogonalPerimeter;outlineConnect=0;targetShapes=umlLifeline;portConstraint=eastwest;newEdgeStyle={&quot;edgeStyle&quot;:&quot;elbowEdgeStyle&quot;,&quot;elbow&quot;:&quot;vertical&quot;,&quot;curved&quot;:0,&quot;rounded&quot;:0};" vertex="1" parent="rdlnQNbEjitJNy3FlGEy-1">
          <mxGeometry x="45" y="80" width="10" height="130" as="geometry" />
        </mxCell>
        <mxCell id="rdlnQNbEjitJNy3FlGEy-7" value="" style="html=1;verticalAlign=bottom;endArrow=block;edgeStyle=elbowEdgeStyle;elbow=vertical;curved=0;rounded=0;exitX=0.916;exitY=0.952;exitDx=0;exitDy=0;exitPerimeter=0;" edge="1" parent="1" source="rdlnQNbEjitJNy3FlGEy-16" target="rdlnQNbEjitJNy3FlGEy-1">
          <mxGeometry relative="1" as="geometry">
            <mxPoint x="300" y="120" as="sourcePoint" />
            <Array as="points">
              <mxPoint x="390" y="140" />
            </Array>
            <mxPoint x="470" y="120" as="targetPoint" />
          </mxGeometry>
        </mxCell>
        <mxCell id="rdlnQNbEjitJNy3FlGEy-8" value="&lt;div style=&quot;text-align: center;&quot;&gt;&lt;span style=&quot;font-size: 11px; text-wrap: nowrap; background-color: rgb(255, 255, 255);&quot;&gt;&lt;font style=&quot;vertical-align: inherit;&quot;&gt;&lt;font style=&quot;vertical-align: inherit;&quot;&gt;2:Validacion de Usuario&lt;/font&gt;&lt;/font&gt;&lt;/span&gt;&lt;/div&gt;" style="text;whiteSpace=wrap;html=1;" vertex="1" parent="1">
          <mxGeometry x="315" y="110" width="110" height="40" as="geometry" />
        </mxCell>
        <mxCell id="rdlnQNbEjitJNy3FlGEy-9" value="" style="html=1;verticalAlign=bottom;endArrow=open;dashed=1;endSize=8;edgeStyle=elbowEdgeStyle;elbow=vertical;curved=0;rounded=0;" edge="1" parent="1" source="rdlnQNbEjitJNy3FlGEy-11" target="rdlnQNbEjitJNy3FlGEy-1">
          <mxGeometry relative="1" as="geometry">
            <mxPoint x="580" y="200" as="targetPoint" />
            <Array as="points">
              <mxPoint x="670" y="200" />
            </Array>
            <mxPoint x="744.5" y="200" as="sourcePoint" />
          </mxGeometry>
        </mxCell>
        <mxCell id="rdlnQNbEjitJNy3FlGEy-11" value="&lt;font style=&quot;vertical-align: inherit;&quot;&gt;&lt;font style=&quot;vertical-align: inherit;&quot;&gt;&lt;font style=&quot;vertical-align: inherit;&quot;&gt;&lt;font style=&quot;vertical-align: inherit;&quot;&gt;&lt;font style=&quot;vertical-align: inherit;&quot;&gt;&lt;font style=&quot;vertical-align: inherit;&quot;&gt;Base De Datos&lt;/font&gt;&lt;/font&gt;&lt;/font&gt;&lt;/font&gt;&lt;/font&gt;&lt;/font&gt;" style="shape=umlLifeline;perimeter=lifelinePerimeter;whiteSpace=wrap;html=1;container=0;dropTarget=0;collapsible=0;recursiveResize=0;outlineConnect=0;portConstraint=eastwest;newEdgeStyle={&quot;edgeStyle&quot;:&quot;elbowEdgeStyle&quot;,&quot;elbow&quot;:&quot;vertical&quot;,&quot;curved&quot;:0,&quot;rounded&quot;:0};" vertex="1" parent="1">
          <mxGeometry x="710" y="40" width="100" height="300" as="geometry" />
        </mxCell>
        <mxCell id="rdlnQNbEjitJNy3FlGEy-12" value="" style="html=1;points=[];perimeter=orthogonalPerimeter;outlineConnect=0;targetShapes=umlLifeline;portConstraint=eastwest;newEdgeStyle={&quot;edgeStyle&quot;:&quot;elbowEdgeStyle&quot;,&quot;elbow&quot;:&quot;vertical&quot;,&quot;curved&quot;:0,&quot;rounded&quot;:0};" vertex="1" parent="rdlnQNbEjitJNy3FlGEy-11">
          <mxGeometry x="45" y="80" width="10" height="100" as="geometry" />
        </mxCell>
        <mxCell id="rdlnQNbEjitJNy3FlGEy-17" value="" style="html=1;verticalAlign=bottom;endArrow=block;edgeStyle=elbowEdgeStyle;elbow=vertical;curved=0;rounded=0;" edge="1" parent="1" source="aM9ryv3xv72pqoxQDRHE-5" target="rdlnQNbEjitJNy3FlGEy-16">
          <mxGeometry relative="1" as="geometry">
            <mxPoint x="280" y="120" as="sourcePoint" />
            <Array as="points" />
            <mxPoint x="450" y="120" as="targetPoint" />
          </mxGeometry>
        </mxCell>
        <mxCell id="rdlnQNbEjitJNy3FlGEy-16" value="&lt;div style=&quot;text-align: center;&quot;&gt;&lt;span style=&quot;font-size: 11px; text-wrap: nowrap; background-color: rgb(255, 255, 255);&quot;&gt;&lt;font style=&quot;vertical-align: inherit;&quot;&gt;&lt;font style=&quot;vertical-align: inherit;&quot;&gt;&lt;font style=&quot;vertical-align: inherit;&quot;&gt;&lt;font style=&quot;vertical-align: inherit;&quot;&gt;1: Autenticación de usuario&lt;/font&gt;&lt;/font&gt;&lt;/font&gt;&lt;/font&gt;&lt;/span&gt;&lt;/div&gt;&lt;div style=&quot;text-align: center;&quot;&gt;&lt;span style=&quot;font-size: 11px; text-wrap: nowrap; background-color: rgb(255, 255, 255);&quot;&gt;&lt;font style=&quot;vertical-align: inherit;&quot;&gt;&lt;font style=&quot;vertical-align: inherit;&quot;&gt;&lt;font style=&quot;vertical-align: inherit;&quot;&gt;&lt;font style=&quot;vertical-align: inherit;&quot;&gt;(user,pass.)&lt;/font&gt;&lt;/font&gt;&lt;/font&gt;&lt;/font&gt;&lt;/span&gt;&lt;/div&gt;" style="text;whiteSpace=wrap;html=1;" vertex="1" parent="1">
          <mxGeometry x="100" y="100" width="200" height="40" as="geometry" />
        </mxCell>
        <mxCell id="rdlnQNbEjitJNy3FlGEy-19" value="&lt;div style=&quot;text-align: center;&quot;&gt;&lt;font style=&quot;vertical-align: inherit;&quot;&gt;&lt;font style=&quot;vertical-align: inherit;&quot;&gt;Error Usurio No Encontrado&lt;/font&gt;&lt;/font&gt;&lt;/div&gt;" style="text;whiteSpace=wrap;html=1;" vertex="1" parent="1">
          <mxGeometry x="550" y="160" width="110" height="40" as="geometry" />
        </mxCell>
        <mxCell id="rdlnQNbEjitJNy3FlGEy-20" value="&lt;div style=&quot;text-align: center;&quot;&gt;&lt;span style=&quot;font-size: 11px; text-wrap: nowrap; background-color: rgb(255, 255, 255);&quot;&gt;&lt;font style=&quot;vertical-align: inherit;&quot;&gt;&lt;font style=&quot;vertical-align: inherit;&quot;&gt;&lt;font style=&quot;vertical-align: inherit;&quot;&gt;&lt;font style=&quot;vertical-align: inherit;&quot;&gt;3: Validación Si Se Encuentra Registrado&lt;/font&gt;&lt;/font&gt;&lt;/font&gt;&lt;/font&gt;&lt;/span&gt;&lt;/div&gt;" style="text;whiteSpace=wrap;html=1;" vertex="1" parent="1">
          <mxGeometry x="490" y="120" width="110" height="40" as="geometry" />
        </mxCell>
        <mxCell id="rdlnQNbEjitJNy3FlGEy-21" value="" style="endArrow=classic;html=1;rounded=0;" edge="1" parent="1" target="rdlnQNbEjitJNy3FlGEy-11">
          <mxGeometry width="50" height="50" relative="1" as="geometry">
            <mxPoint x="455" y="160" as="sourcePoint" />
            <mxPoint x="655" y="160" as="targetPoint" />
          </mxGeometry>
        </mxCell>
        <mxCell id="rdlnQNbEjitJNy3FlGEy-22" value="&lt;font style=&quot;vertical-align: inherit;&quot;&gt;&lt;font style=&quot;vertical-align: inherit;&quot;&gt;Usurio no Registrado&lt;/font&gt;&lt;/font&gt;" style="html=1;verticalAlign=bottom;endArrow=open;dashed=1;endSize=8;edgeStyle=elbowEdgeStyle;elbow=horizontal;curved=0;rounded=0;" edge="1" parent="1">
          <mxGeometry relative="1" as="geometry">
            <mxPoint x="270" y="230" as="targetPoint" />
            <Array as="points">
              <mxPoint x="365" y="230" />
            </Array>
            <mxPoint x="450" y="230" as="sourcePoint" />
          </mxGeometry>
        </mxCell>
        <mxCell id="rdlnQNbEjitJNy3FlGEy-23" value="" style="endArrow=classic;html=1;rounded=0;entryX=0.878;entryY=0.931;entryDx=0;entryDy=0;entryPerimeter=0;" edge="1" parent="1" source="aM9ryv3xv72pqoxQDRHE-1" target="rdlnQNbEjitJNy3FlGEy-16">
          <mxGeometry width="50" height="50" relative="1" as="geometry">
            <mxPoint x="110" y="180" as="sourcePoint" />
            <mxPoint x="160" y="130" as="targetPoint" />
          </mxGeometry>
        </mxCell>
        <mxCell id="rdlnQNbEjitJNy3FlGEy-24" value="&lt;font style=&quot;vertical-align: inherit;&quot;&gt;&lt;font style=&quot;vertical-align: inherit;&quot;&gt;Cliente&lt;/font&gt;&lt;/font&gt;" style="shape=umlLifeline;perimeter=lifelinePerimeter;whiteSpace=wrap;html=1;container=0;dropTarget=0;collapsible=0;recursiveResize=0;outlineConnect=0;portConstraint=eastwest;newEdgeStyle={&quot;edgeStyle&quot;:&quot;elbowEdgeStyle&quot;,&quot;elbow&quot;:&quot;vertical&quot;,&quot;curved&quot;:0,&quot;rounded&quot;:0};" vertex="1" parent="1">
          <mxGeometry x="40" y="440" width="70" height="1160" as="geometry" />
        </mxCell>
        <mxCell id="rdlnQNbEjitJNy3FlGEy-25" value="&lt;font style=&quot;vertical-align: inherit;&quot;&gt;&lt;font style=&quot;vertical-align: inherit;&quot;&gt;Interface&lt;/font&gt;&lt;/font&gt;" style="shape=umlLifeline;perimeter=lifelinePerimeter;whiteSpace=wrap;html=1;container=0;dropTarget=0;collapsible=0;recursiveResize=0;outlineConnect=0;portConstraint=eastwest;newEdgeStyle={&quot;edgeStyle&quot;:&quot;elbowEdgeStyle&quot;,&quot;elbow&quot;:&quot;vertical&quot;,&quot;curved&quot;:0,&quot;rounded&quot;:0};" vertex="1" parent="1">
          <mxGeometry x="240" y="440" width="110" height="1160" as="geometry" />
        </mxCell>
        <mxCell id="rdlnQNbEjitJNy3FlGEy-26" value="&lt;span style=&quot;color: rgba(0, 0, 0, 0); font-family: monospace; font-size: 0px; text-align: start;&quot;&gt;%3CmxGraphModel%3E%3Croot%3E%3CmxCell%20id%3D%220%22%2F%3E%3CmxCell%20id%3D%221%22%20parent%3D%220%22%2F%3E%3CmxCell%20id%3D%222%22%20value%3D%229%3AAgenda%20Disponible%22%20style%3D%22html%3D1%3BverticalAlign%3Dbottom%3BendArrow%3Dopen%3Bdashed%3D1%3BendSize%3D8%3BedgeStyle%3DelbowEdgeStyle%3Belbow%3Dhorizontal%3Bcurved%3D0%3Brounded%3D0%3BexitX%3D0.5%3BexitY%3D0.885%3BexitDx%3D0%3BexitDy%3D0%3BexitPerimeter%3D0%3BentryX%3D0.545%3BentryY%3D0.885%3BentryDx%3D0%3BentryDy%3D0%3BentryPerimeter%3D0%3B%22%20edge%3D%221%22%20parent%3D%221%22%3E%3CmxGeometry%20relative%3D%221%22%20as%3D%22geometry%22%3E%3CmxPoint%20x%3D%221030%22%20y%3D%22900%22%20as%3D%22targetPoint%22%2F%3E%3CArray%20as%3D%22points%22%3E%3CmxPoint%20x%3D%221135%22%20y%3D%22900%22%2F%3E%3C%2FArray%3E%3CmxPoint%20x%3D%221240%22%20y%3D%22900%22%20as%3D%22sourcePoint%22%2F%3E%3CmxPoint%20as%3D%22offset%22%2F%3E%3C%2FmxGeometry%3E%3C%2FmxCell%3E%3C%2Froot%3E%3C%2FmxGraphModel%3E&lt;/span&gt;" style="html=1;points=[];perimeter=orthogonalPerimeter;outlineConnect=0;targetShapes=umlLifeline;portConstraint=eastwest;newEdgeStyle={&quot;edgeStyle&quot;:&quot;elbowEdgeStyle&quot;,&quot;elbow&quot;:&quot;vertical&quot;,&quot;curved&quot;:0,&quot;rounded&quot;:0};" vertex="1" parent="rdlnQNbEjitJNy3FlGEy-25">
          <mxGeometry x="45" y="70" width="10" height="200" as="geometry" />
        </mxCell>
        <mxCell id="rdlnQNbEjitJNy3FlGEy-64" value="&lt;span style=&quot;color: rgba(0, 0, 0, 0); font-family: monospace; font-size: 0px; text-align: start;&quot;&gt;%3CmxGraphModel%3E%3Croot%3E%3CmxCell%20id%3D%220%22%2F%3E%3CmxCell%20id%3D%221%22%20parent%3D%220%22%2F%3E%3CmxCell%20id%3D%222%22%20value%3D%229%3AAgenda%20Disponible%22%20style%3D%22html%3D1%3BverticalAlign%3Dbottom%3BendArrow%3Dopen%3Bdashed%3D1%3BendSize%3D8%3BedgeStyle%3DelbowEdgeStyle%3Belbow%3Dhorizontal%3Bcurved%3D0%3Brounded%3D0%3BexitX%3D0.5%3BexitY%3D0.885%3BexitDx%3D0%3BexitDy%3D0%3BexitPerimeter%3D0%3BentryX%3D0.545%3BentryY%3D0.885%3BentryDx%3D0%3BentryDy%3D0%3BentryPerimeter%3D0%3B%22%20edge%3D%221%22%20parent%3D%221%22%3E%3CmxGeometry%20relative%3D%221%22%20as%3D%22geometry%22%3E%3CmxPoint%20x%3D%221030%22%20y%3D%22900%22%20as%3D%22targetPoint%22%2F%3E%3CArray%20as%3D%22points%22%3E%3CmxPoint%20x%3D%221135%22%20y%3D%22900%22%2F%3E%3C%2FArray%3E%3CmxPoint%20x%3D%221240%22%20y%3D%22900%22%20as%3D%22sourcePoint%22%2F%3E%3CmxPoint%20as%3D%22offset%22%2F%3E%3C%2FmxGeometry%3E%3C%2FmxCell%3E%3C%2Froot%3E%3C%2FmxGraphModel%3E&lt;/span&gt;&lt;span style=&quot;color: rgba(0, 0, 0, 0); font-family: monospace; font-size: 0px; text-align: start;&quot;&gt;%3CmxGraphModel%3E%3Croot%3E%3CmxCell%20id%3D%220%22%2F%3E%3CmxCell%20id%3D%221%22%20parent%3D%220%22%2F%3E%3CmxCell%20id%3D%222%22%20value%3D%229%3AAgenda%20Disponible%22%20style%3D%22html%3D1%3BverticalAlign%3Dbottom%3BendArrow%3Dopen%3Bdashed%3D1%3BendSize%3D8%3BedgeStyle%3DelbowEdgeStyle%3Belbow%3Dhorizontal%3Bcurved%3D0%3Brounded%3D0%3BexitX%3D0.5%3BexitY%3D0.885%3BexitDx%3D0%3BexitDy%3D0%3BexitPerimeter%3D0%3BentryX%3D0.545%3BentryY%3D0.885%3BentryDx%3D0%3BentryDy%3D0%3BentryPerimeter%3D0%3B%22%20edge%3D%221%22%20parent%3D%221%22%3E%3CmxGeometry%20relative%3D%221%22%20as%3D%22geometry%22%3E%3CmxPoint%20x%3D%221030%22%20y%3D%22900%22%20as%3D%22targetPoint%22%2F%3E%3CArray%20as%3D%22points%22%3E%3CmxPoint%20x%3D%221135%22%20y%3D%22900%22%2F%3E%3C%2FArray%3E%3CmxPoint%20x%3D%221240%22%20y%3D%22900%22%20as%3D%22sourcePoint%22%2F%3E%3CmxPoint%20as%3D%22offset%22%2F%3E%3C%2FmxGeometry%3E%3C%2FmxCell%3E%3C%2Froot%3E%3C%2FmxGraphModel%3E&lt;/span&gt;" style="html=1;points=[];perimeter=orthogonalPerimeter;outlineConnect=0;targetShapes=umlLifeline;portConstraint=eastwest;newEdgeStyle={&quot;edgeStyle&quot;:&quot;elbowEdgeStyle&quot;,&quot;elbow&quot;:&quot;vertical&quot;,&quot;curved&quot;:0,&quot;rounded&quot;:0};" vertex="1" parent="rdlnQNbEjitJNy3FlGEy-25">
          <mxGeometry x="45" y="300" width="10" height="780" as="geometry" />
        </mxCell>
        <mxCell id="rdlnQNbEjitJNy3FlGEy-27" value="4:Confirmacion de Inicio de Sesion" style="html=1;verticalAlign=bottom;endArrow=block;edgeStyle=elbowEdgeStyle;elbow=vertical;curved=0;rounded=0;" edge="1" parent="1" target="rdlnQNbEjitJNy3FlGEy-24">
          <mxGeometry x="-0.0286" y="-10" relative="1" as="geometry">
            <mxPoint x="280" y="690" as="sourcePoint" />
            <Array as="points">
              <mxPoint x="195" y="690" />
            </Array>
            <mxPoint x="105" y="690" as="targetPoint" />
            <mxPoint as="offset" />
          </mxGeometry>
        </mxCell>
        <mxCell id="rdlnQNbEjitJNy3FlGEy-28" value="&lt;font style=&quot;vertical-align: inherit;&quot;&gt;&lt;font style=&quot;vertical-align: inherit;&quot;&gt;&lt;font style=&quot;vertical-align: inherit;&quot;&gt;&lt;font style=&quot;vertical-align: inherit;&quot;&gt;Gestion Usuarios&lt;/font&gt;&lt;/font&gt;&lt;/font&gt;&lt;/font&gt;" style="shape=umlLifeline;perimeter=lifelinePerimeter;whiteSpace=wrap;html=1;container=0;dropTarget=0;collapsible=0;recursiveResize=0;outlineConnect=0;portConstraint=eastwest;newEdgeStyle={&quot;edgeStyle&quot;:&quot;elbowEdgeStyle&quot;,&quot;elbow&quot;:&quot;vertical&quot;,&quot;curved&quot;:0,&quot;rounded&quot;:0};" vertex="1" parent="1">
          <mxGeometry x="425" y="440" width="105" height="250" as="geometry" />
        </mxCell>
        <mxCell id="rdlnQNbEjitJNy3FlGEy-29" value="" style="html=1;points=[];perimeter=orthogonalPerimeter;outlineConnect=0;targetShapes=umlLifeline;portConstraint=eastwest;newEdgeStyle={&quot;edgeStyle&quot;:&quot;elbowEdgeStyle&quot;,&quot;elbow&quot;:&quot;vertical&quot;,&quot;curved&quot;:0,&quot;rounded&quot;:0};" vertex="1" parent="rdlnQNbEjitJNy3FlGEy-28">
          <mxGeometry x="45" y="100" width="10" height="110" as="geometry" />
        </mxCell>
        <mxCell id="rdlnQNbEjitJNy3FlGEy-30" value="" style="html=1;verticalAlign=bottom;endArrow=block;edgeStyle=elbowEdgeStyle;elbow=vertical;curved=0;rounded=0;exitX=0.916;exitY=0.952;exitDx=0;exitDy=0;exitPerimeter=0;" edge="1" parent="1" source="rdlnQNbEjitJNy3FlGEy-36" target="rdlnQNbEjitJNy3FlGEy-28">
          <mxGeometry relative="1" as="geometry">
            <mxPoint x="305" y="530" as="sourcePoint" />
            <Array as="points">
              <mxPoint x="395" y="550" />
            </Array>
            <mxPoint x="475" y="530" as="targetPoint" />
          </mxGeometry>
        </mxCell>
        <mxCell id="rdlnQNbEjitJNy3FlGEy-31" value="&lt;div style=&quot;text-align: center;&quot;&gt;&lt;span style=&quot;font-size: 11px; text-wrap: nowrap; background-color: rgb(255, 255, 255);&quot;&gt;&lt;font style=&quot;vertical-align: inherit;&quot;&gt;&lt;font style=&quot;vertical-align: inherit;&quot;&gt;2:Validacion de Usuario&lt;/font&gt;&lt;/font&gt;&lt;/span&gt;&lt;/div&gt;" style="text;whiteSpace=wrap;html=1;" vertex="1" parent="1">
          <mxGeometry x="320" y="520" width="110" height="40" as="geometry" />
        </mxCell>
        <mxCell id="rdlnQNbEjitJNy3FlGEy-32" value="" style="html=1;verticalAlign=bottom;endArrow=open;dashed=1;endSize=8;edgeStyle=elbowEdgeStyle;elbow=vertical;curved=0;rounded=0;" edge="1" parent="1" source="rdlnQNbEjitJNy3FlGEy-33" target="rdlnQNbEjitJNy3FlGEy-28">
          <mxGeometry relative="1" as="geometry">
            <mxPoint x="585" y="610" as="targetPoint" />
            <Array as="points">
              <mxPoint x="675" y="610" />
            </Array>
            <mxPoint x="749.5" y="610" as="sourcePoint" />
          </mxGeometry>
        </mxCell>
        <mxCell id="rdlnQNbEjitJNy3FlGEy-33" value="&lt;font style=&quot;vertical-align: inherit;&quot;&gt;&lt;font style=&quot;vertical-align: inherit;&quot;&gt;&lt;font style=&quot;vertical-align: inherit;&quot;&gt;&lt;font style=&quot;vertical-align: inherit;&quot;&gt;&lt;font style=&quot;vertical-align: inherit;&quot;&gt;&lt;font style=&quot;vertical-align: inherit;&quot;&gt;Base De Datos&lt;/font&gt;&lt;/font&gt;&lt;/font&gt;&lt;/font&gt;&lt;/font&gt;&lt;/font&gt;" style="shape=umlLifeline;perimeter=lifelinePerimeter;whiteSpace=wrap;html=1;container=0;dropTarget=0;collapsible=0;recursiveResize=0;outlineConnect=0;portConstraint=eastwest;newEdgeStyle={&quot;edgeStyle&quot;:&quot;elbowEdgeStyle&quot;,&quot;elbow&quot;:&quot;vertical&quot;,&quot;curved&quot;:0,&quot;rounded&quot;:0};" vertex="1" parent="1">
          <mxGeometry x="1190" y="440" width="100" height="1160" as="geometry" />
        </mxCell>
        <mxCell id="rdlnQNbEjitJNy3FlGEy-34" value="" style="html=1;points=[];perimeter=orthogonalPerimeter;outlineConnect=0;targetShapes=umlLifeline;portConstraint=eastwest;newEdgeStyle={&quot;edgeStyle&quot;:&quot;elbowEdgeStyle&quot;,&quot;elbow&quot;:&quot;vertical&quot;,&quot;curved&quot;:0,&quot;rounded&quot;:0};" vertex="1" parent="rdlnQNbEjitJNy3FlGEy-33">
          <mxGeometry x="45" y="80" width="10" height="100" as="geometry" />
        </mxCell>
        <mxCell id="rdlnQNbEjitJNy3FlGEy-67" value="&lt;span style=&quot;color: rgba(0, 0, 0, 0); font-family: monospace; font-size: 0px; text-align: start;&quot;&gt;%3CmxGraphModel%3E%3Croot%3E%3CmxCell%20id%3D%220%22%2F%3E%3CmxCell%20id%3D%221%22%20parent%3D%220%22%2F%3E%3CmxCell%20id%3D%222%22%20value%3D%229%3AAgenda%20Disponible%22%20style%3D%22html%3D1%3BverticalAlign%3Dbottom%3BendArrow%3Dopen%3Bdashed%3D1%3BendSize%3D8%3BedgeStyle%3DelbowEdgeStyle%3Belbow%3Dhorizontal%3Bcurved%3D0%3Brounded%3D0%3BexitX%3D0.5%3BexitY%3D0.885%3BexitDx%3D0%3BexitDy%3D0%3BexitPerimeter%3D0%3BentryX%3D0.545%3BentryY%3D0.885%3BentryDx%3D0%3BentryDy%3D0%3BentryPerimeter%3D0%3B%22%20edge%3D%221%22%20parent%3D%221%22%3E%3CmxGeometry%20relative%3D%221%22%20as%3D%22geometry%22%3E%3CmxPoint%20x%3D%221030%22%20y%3D%22900%22%20as%3D%22targetPoint%22%2F%3E%3CArray%20as%3D%22points%22%3E%3CmxPoint%20x%3D%221135%22%20y%3D%22900%22%2F%3E%3C%2FArray%3E%3CmxPoint%20x%3D%221240%22%20y%3D%22900%22%20as%3D%22sourcePoint%22%2F%3E%3CmxPoint%20as%3D%22offset%22%2F%3E%3C%2FmxGeometry%3E%3C%2FmxCell%3E%3C%2Froot%3E%3C%2FmxGraphModel%3E&lt;/span&gt;" style="html=1;points=[];perimeter=orthogonalPerimeter;outlineConnect=0;targetShapes=umlLifeline;portConstraint=eastwest;newEdgeStyle={&quot;edgeStyle&quot;:&quot;elbowEdgeStyle&quot;,&quot;elbow&quot;:&quot;vertical&quot;,&quot;curved&quot;:0,&quot;rounded&quot;:0};" vertex="1" parent="rdlnQNbEjitJNy3FlGEy-33">
          <mxGeometry x="45" y="390" width="10" height="580" as="geometry" />
        </mxCell>
        <mxCell id="rdlnQNbEjitJNy3FlGEy-35" value="" style="html=1;verticalAlign=bottom;endArrow=block;edgeStyle=elbowEdgeStyle;elbow=vertical;curved=0;rounded=0;" edge="1" parent="1" source="rdlnQNbEjitJNy3FlGEy-25" target="rdlnQNbEjitJNy3FlGEy-36">
          <mxGeometry relative="1" as="geometry">
            <mxPoint x="285" y="530" as="sourcePoint" />
            <Array as="points" />
            <mxPoint x="455" y="530" as="targetPoint" />
          </mxGeometry>
        </mxCell>
        <mxCell id="rdlnQNbEjitJNy3FlGEy-36" value="&lt;div style=&quot;text-align: center;&quot;&gt;&lt;span style=&quot;font-size: 11px; text-wrap: nowrap; background-color: rgb(255, 255, 255);&quot;&gt;&lt;font style=&quot;vertical-align: inherit;&quot;&gt;&lt;font style=&quot;vertical-align: inherit;&quot;&gt;&lt;font style=&quot;vertical-align: inherit;&quot;&gt;&lt;font style=&quot;vertical-align: inherit;&quot;&gt;1: Autenticación de usuario&lt;/font&gt;&lt;/font&gt;&lt;/font&gt;&lt;/font&gt;&lt;/span&gt;&lt;/div&gt;" style="text;whiteSpace=wrap;html=1;" vertex="1" parent="1">
          <mxGeometry x="105" y="510" width="200" height="40" as="geometry" />
        </mxCell>
        <mxCell id="rdlnQNbEjitJNy3FlGEy-37" value="&lt;div style=&quot;text-align: center;&quot;&gt;&lt;font style=&quot;vertical-align: inherit;&quot;&gt;&lt;font style=&quot;vertical-align: inherit;&quot;&gt;Yes, Uusrioa Encontrado&lt;/font&gt;&lt;/font&gt;&lt;/div&gt;" style="text;whiteSpace=wrap;html=1;" vertex="1" parent="1">
          <mxGeometry x="820" y="570" width="110" height="40" as="geometry" />
        </mxCell>
        <mxCell id="rdlnQNbEjitJNy3FlGEy-38" value="&lt;div style=&quot;text-align: center;&quot;&gt;&lt;span style=&quot;font-size: 11px; text-wrap: nowrap; background-color: rgb(255, 255, 255);&quot;&gt;&lt;font style=&quot;vertical-align: inherit;&quot;&gt;&lt;font style=&quot;vertical-align: inherit;&quot;&gt;&lt;font style=&quot;vertical-align: inherit;&quot;&gt;&lt;font style=&quot;vertical-align: inherit;&quot;&gt;3: Validación Si Se Encuentra Registrado&lt;/font&gt;&lt;/font&gt;&lt;/font&gt;&lt;/font&gt;&lt;/span&gt;&lt;/div&gt;" style="text;whiteSpace=wrap;html=1;" vertex="1" parent="1">
          <mxGeometry x="1020" y="540" width="110" height="40" as="geometry" />
        </mxCell>
        <mxCell id="rdlnQNbEjitJNy3FlGEy-39" value="" style="endArrow=classic;html=1;rounded=0;" edge="1" parent="1" target="rdlnQNbEjitJNy3FlGEy-33">
          <mxGeometry width="50" height="50" relative="1" as="geometry">
            <mxPoint x="460" y="570" as="sourcePoint" />
            <mxPoint x="660" y="570" as="targetPoint" />
          </mxGeometry>
        </mxCell>
        <mxCell id="rdlnQNbEjitJNy3FlGEy-40" value="Usuario Encontrado" style="html=1;verticalAlign=bottom;endArrow=open;dashed=1;endSize=8;edgeStyle=elbowEdgeStyle;elbow=horizontal;curved=0;rounded=0;" edge="1" parent="1" source="rdlnQNbEjitJNy3FlGEy-29">
          <mxGeometry relative="1" as="geometry">
            <mxPoint x="275" y="640" as="targetPoint" />
            <Array as="points">
              <mxPoint x="370" y="640" />
            </Array>
            <mxPoint x="455" y="640" as="sourcePoint" />
            <mxPoint as="offset" />
          </mxGeometry>
        </mxCell>
        <mxCell id="rdlnQNbEjitJNy3FlGEy-41" value="" style="endArrow=classic;html=1;rounded=0;entryX=0.878;entryY=0.931;entryDx=0;entryDy=0;entryPerimeter=0;" edge="1" parent="1" source="rdlnQNbEjitJNy3FlGEy-24" target="rdlnQNbEjitJNy3FlGEy-36">
          <mxGeometry width="50" height="50" relative="1" as="geometry">
            <mxPoint x="115" y="590" as="sourcePoint" />
            <mxPoint x="165" y="540" as="targetPoint" />
          </mxGeometry>
        </mxCell>
        <mxCell id="rdlnQNbEjitJNy3FlGEy-42" value="&lt;font style=&quot;vertical-align: inherit;&quot;&gt;&lt;font style=&quot;vertical-align: inherit;&quot;&gt;&lt;font style=&quot;vertical-align: inherit;&quot;&gt;&lt;font style=&quot;vertical-align: inherit;&quot;&gt;Gestion Reservas&lt;/font&gt;&lt;/font&gt;&lt;/font&gt;&lt;/font&gt;" style="shape=umlLifeline;perimeter=lifelinePerimeter;whiteSpace=wrap;html=1;container=0;dropTarget=0;collapsible=0;recursiveResize=0;outlineConnect=0;portConstraint=eastwest;newEdgeStyle={&quot;edgeStyle&quot;:&quot;elbowEdgeStyle&quot;,&quot;elbow&quot;:&quot;vertical&quot;,&quot;curved&quot;:0,&quot;rounded&quot;:0};" vertex="1" parent="1">
          <mxGeometry x="780" y="440" width="100" height="1160" as="geometry" />
        </mxCell>
        <mxCell id="rdlnQNbEjitJNy3FlGEy-43" value="" style="html=1;points=[];perimeter=orthogonalPerimeter;outlineConnect=0;targetShapes=umlLifeline;portConstraint=eastwest;newEdgeStyle={&quot;edgeStyle&quot;:&quot;elbowEdgeStyle&quot;,&quot;elbow&quot;:&quot;vertical&quot;,&quot;curved&quot;:0,&quot;rounded&quot;:0};" vertex="1" parent="rdlnQNbEjitJNy3FlGEy-42">
          <mxGeometry x="45" y="80" width="10" height="130" as="geometry" />
        </mxCell>
        <mxCell id="rdlnQNbEjitJNy3FlGEy-93" value="&lt;span style=&quot;color: rgba(0, 0, 0, 0); font-family: monospace; font-size: 0px; text-align: start;&quot;&gt;%3CmxGraphModel%3E%3Croot%3E%3CmxCell%20id%3D%220%22%2F%3E%3CmxCell%20id%3D%221%22%20parent%3D%220%22%2F%3E%3CmxCell%20id%3D%222%22%20value%3D%229%3AAgenda%20Disponible%22%20style%3D%22html%3D1%3BverticalAlign%3Dbottom%3BendArrow%3Dopen%3Bdashed%3D1%3BendSize%3D8%3BedgeStyle%3DelbowEdgeStyle%3Belbow%3Dhorizontal%3Bcurved%3D0%3Brounded%3D0%3BexitX%3D0.5%3BexitY%3D0.885%3BexitDx%3D0%3BexitDy%3D0%3BexitPerimeter%3D0%3BentryX%3D0.545%3BentryY%3D0.885%3BentryDx%3D0%3BentryDy%3D0%3BentryPerimeter%3D0%3B%22%20edge%3D%221%22%20parent%3D%221%22%3E%3CmxGeometry%20relative%3D%221%22%20as%3D%22geometry%22%3E%3CmxPoint%20x%3D%221030%22%20y%3D%22900%22%20as%3D%22targetPoint%22%2F%3E%3CArray%20as%3D%22points%22%3E%3CmxPoint%20x%3D%221135%22%20y%3D%22900%22%2F%3E%3C%2FArray%3E%3CmxPoint%20x%3D%221240%22%20y%3D%22900%22%20as%3D%22sourcePoint%22%2F%3E%3CmxPoint%20as%3D%22offset%22%2F%3E%3C%2FmxGeometry%3E%3C%2FmxCell%3E%3C%2Froot%3E%3C%2FmxGraphModel%3E&lt;/span&gt;" style="html=1;points=[];perimeter=orthogonalPerimeter;outlineConnect=0;targetShapes=umlLifeline;portConstraint=eastwest;newEdgeStyle={&quot;edgeStyle&quot;:&quot;elbowEdgeStyle&quot;,&quot;elbow&quot;:&quot;vertical&quot;,&quot;curved&quot;:0,&quot;rounded&quot;:0};" vertex="1" parent="rdlnQNbEjitJNy3FlGEy-42">
          <mxGeometry x="45" y="880" width="10" height="120" as="geometry" />
        </mxCell>
        <mxCell id="rdlnQNbEjitJNy3FlGEy-44" value="&lt;font style=&quot;vertical-align: inherit;&quot;&gt;&lt;font style=&quot;vertical-align: inherit;&quot;&gt;&lt;font style=&quot;vertical-align: inherit;&quot;&gt;&lt;font style=&quot;vertical-align: inherit;&quot;&gt;Gestion Agenda&lt;/font&gt;&lt;/font&gt;&lt;/font&gt;&lt;/font&gt;" style="shape=umlLifeline;perimeter=lifelinePerimeter;whiteSpace=wrap;html=1;container=0;dropTarget=0;collapsible=0;recursiveResize=0;outlineConnect=0;portConstraint=eastwest;newEdgeStyle={&quot;edgeStyle&quot;:&quot;elbowEdgeStyle&quot;,&quot;elbow&quot;:&quot;vertical&quot;,&quot;curved&quot;:0,&quot;rounded&quot;:0};" vertex="1" parent="1">
          <mxGeometry x="970" y="440" width="110" height="1160" as="geometry" />
        </mxCell>
        <mxCell id="rdlnQNbEjitJNy3FlGEy-45" value="" style="html=1;points=[];perimeter=orthogonalPerimeter;outlineConnect=0;targetShapes=umlLifeline;portConstraint=eastwest;newEdgeStyle={&quot;edgeStyle&quot;:&quot;elbowEdgeStyle&quot;,&quot;elbow&quot;:&quot;vertical&quot;,&quot;curved&quot;:0,&quot;rounded&quot;:0};" vertex="1" parent="rdlnQNbEjitJNy3FlGEy-44">
          <mxGeometry x="45" y="80" width="10" height="130" as="geometry" />
        </mxCell>
        <mxCell id="rdlnQNbEjitJNy3FlGEy-66" value="&lt;span style=&quot;color: rgba(0, 0, 0, 0); font-family: monospace; font-size: 0px; text-align: start;&quot;&gt;%3CmxGraphModel%3E%3Croot%3E%3CmxCell%20id%3D%220%22%2F%3E%3CmxCell%20id%3D%221%22%20parent%3D%220%22%2F%3E%3CmxCell%20id%3D%222%22%20value%3D%229%3AAgenda%20Disponible%22%20style%3D%22html%3D1%3BverticalAlign%3Dbottom%3BendArrow%3Dopen%3Bdashed%3D1%3BendSize%3D8%3BedgeStyle%3DelbowEdgeStyle%3Belbow%3Dhorizontal%3Bcurved%3D0%3Brounded%3D0%3BexitX%3D0.5%3BexitY%3D0.885%3BexitDx%3D0%3BexitDy%3D0%3BexitPerimeter%3D0%3BentryX%3D0.545%3BentryY%3D0.885%3BentryDx%3D0%3BentryDy%3D0%3BentryPerimeter%3D0%3B%22%20edge%3D%221%22%20parent%3D%221%22%3E%3CmxGeometry%20relative%3D%221%22%20as%3D%22geometry%22%3E%3CmxPoint%20x%3D%221030%22%20y%3D%22900%22%20as%3D%22targetPoint%22%2F%3E%3CArray%20as%3D%22points%22%3E%3CmxPoint%20x%3D%221135%22%20y%3D%22900%22%2F%3E%3C%2FArray%3E%3CmxPoint%20x%3D%221240%22%20y%3D%22900%22%20as%3D%22sourcePoint%22%2F%3E%3CmxPoint%20as%3D%22offset%22%2F%3E%3C%2FmxGeometry%3E%3C%2FmxCell%3E%3C%2Froot%3E%3C%2FmxGraphModel%3E&lt;/span&gt;" style="html=1;points=[];perimeter=orthogonalPerimeter;outlineConnect=0;targetShapes=umlLifeline;portConstraint=eastwest;newEdgeStyle={&quot;edgeStyle&quot;:&quot;elbowEdgeStyle&quot;,&quot;elbow&quot;:&quot;vertical&quot;,&quot;curved&quot;:0,&quot;rounded&quot;:0};" vertex="1" parent="rdlnQNbEjitJNy3FlGEy-44">
          <mxGeometry x="50" y="360" width="10" height="170" as="geometry" />
        </mxCell>
        <mxCell id="rdlnQNbEjitJNy3FlGEy-88" value="&lt;span style=&quot;color: rgba(0, 0, 0, 0); font-family: monospace; font-size: 0px; text-align: start;&quot;&gt;%3CmxGraphModel%3E%3Croot%3E%3CmxCell%20id%3D%220%22%2F%3E%3CmxCell%20id%3D%221%22%20parent%3D%220%22%2F%3E%3CmxCell%20id%3D%222%22%20value%3D%229%3AAgenda%20Disponible%22%20style%3D%22html%3D1%3BverticalAlign%3Dbottom%3BendArrow%3Dopen%3Bdashed%3D1%3BendSize%3D8%3BedgeStyle%3DelbowEdgeStyle%3Belbow%3Dhorizontal%3Bcurved%3D0%3Brounded%3D0%3BexitX%3D0.5%3BexitY%3D0.885%3BexitDx%3D0%3BexitDy%3D0%3BexitPerimeter%3D0%3BentryX%3D0.545%3BentryY%3D0.885%3BentryDx%3D0%3BentryDy%3D0%3BentryPerimeter%3D0%3B%22%20edge%3D%221%22%20parent%3D%221%22%3E%3CmxGeometry%20relative%3D%221%22%20as%3D%22geometry%22%3E%3CmxPoint%20x%3D%221030%22%20y%3D%22900%22%20as%3D%22targetPoint%22%2F%3E%3CArray%20as%3D%22points%22%3E%3CmxPoint%20x%3D%221135%22%20y%3D%22900%22%2F%3E%3C%2FArray%3E%3CmxPoint%20x%3D%221240%22%20y%3D%22900%22%20as%3D%22sourcePoint%22%2F%3E%3CmxPoint%20as%3D%22offset%22%2F%3E%3C%2FmxGeometry%3E%3C%2FmxCell%3E%3C%2Froot%3E%3C%2FmxGraphModel%3E&lt;/span&gt;" style="html=1;points=[];perimeter=orthogonalPerimeter;outlineConnect=0;targetShapes=umlLifeline;portConstraint=eastwest;newEdgeStyle={&quot;edgeStyle&quot;:&quot;elbowEdgeStyle&quot;,&quot;elbow&quot;:&quot;vertical&quot;,&quot;curved&quot;:0,&quot;rounded&quot;:0};" vertex="1" parent="rdlnQNbEjitJNy3FlGEy-44">
          <mxGeometry x="50" y="840" width="10" height="90" as="geometry" />
        </mxCell>
        <mxCell id="rdlnQNbEjitJNy3FlGEy-47" value="" style="endArrow=classic;html=1;rounded=0;" edge="1" parent="1" target="rdlnQNbEjitJNy3FlGEy-25">
          <mxGeometry width="50" height="50" relative="1" as="geometry">
            <mxPoint x="79.5" y="760" as="sourcePoint" />
            <mxPoint x="289.5" y="760" as="targetPoint" />
          </mxGeometry>
        </mxCell>
        <mxCell id="rdlnQNbEjitJNy3FlGEy-50" value="&lt;div style=&quot;text-align: center;&quot;&gt;&lt;span style=&quot;font-size: 11px; text-wrap: nowrap; background-color: rgb(255, 255, 255);&quot;&gt;5:Ingreso al Modulo de Planes&lt;/span&gt;&lt;/div&gt;" style="text;whiteSpace=wrap;html=1;" vertex="1" parent="1">
          <mxGeometry x="130" y="730" width="130" height="40" as="geometry" />
        </mxCell>
        <mxCell id="rdlnQNbEjitJNy3FlGEy-51" value="&lt;font style=&quot;vertical-align: inherit;&quot;&gt;&lt;font style=&quot;vertical-align: inherit;&quot;&gt;&lt;font style=&quot;vertical-align: inherit;&quot;&gt;&lt;font style=&quot;vertical-align: inherit;&quot;&gt;Modulo de Planes&lt;/font&gt;&lt;/font&gt;&lt;/font&gt;&lt;/font&gt;" style="shape=umlLifeline;perimeter=lifelinePerimeter;whiteSpace=wrap;html=1;container=0;dropTarget=0;collapsible=0;recursiveResize=0;outlineConnect=0;portConstraint=eastwest;newEdgeStyle={&quot;edgeStyle&quot;:&quot;elbowEdgeStyle&quot;,&quot;elbow&quot;:&quot;vertical&quot;,&quot;curved&quot;:0,&quot;rounded&quot;:0};" vertex="1" parent="1">
          <mxGeometry x="600" y="440" width="120" height="1160" as="geometry" />
        </mxCell>
        <mxCell id="rdlnQNbEjitJNy3FlGEy-52" value="" style="html=1;points=[];perimeter=orthogonalPerimeter;outlineConnect=0;targetShapes=umlLifeline;portConstraint=eastwest;newEdgeStyle={&quot;edgeStyle&quot;:&quot;elbowEdgeStyle&quot;,&quot;elbow&quot;:&quot;vertical&quot;,&quot;curved&quot;:0,&quot;rounded&quot;:0};" vertex="1" parent="rdlnQNbEjitJNy3FlGEy-51">
          <mxGeometry x="45" y="80" width="10" height="130" as="geometry" />
        </mxCell>
        <mxCell id="rdlnQNbEjitJNy3FlGEy-65" value="&lt;span style=&quot;color: rgba(0, 0, 0, 0); font-family: monospace; font-size: 0px; text-align: start;&quot;&gt;%3CmxGraphModel%3E%3Croot%3E%3CmxCell%20id%3D%220%22%2F%3E%3CmxCell%20id%3D%221%22%20parent%3D%220%22%2F%3E%3CmxCell%20id%3D%222%22%20value%3D%229%3AAgenda%20Disponible%22%20style%3D%22html%3D1%3BverticalAlign%3Dbottom%3BendArrow%3Dopen%3Bdashed%3D1%3BendSize%3D8%3BedgeStyle%3DelbowEdgeStyle%3Belbow%3Dhorizontal%3Bcurved%3D0%3Brounded%3D0%3BexitX%3D0.5%3BexitY%3D0.885%3BexitDx%3D0%3BexitDy%3D0%3BexitPerimeter%3D0%3BentryX%3D0.545%3BentryY%3D0.885%3BentryDx%3D0%3BentryDy%3D0%3BentryPerimeter%3D0%3B%22%20edge%3D%221%22%20parent%3D%221%22%3E%3CmxGeometry%20relative%3D%221%22%20as%3D%22geometry%22%3E%3CmxPoint%20x%3D%221030%22%20y%3D%22900%22%20as%3D%22targetPoint%22%2F%3E%3CArray%20as%3D%22points%22%3E%3CmxPoint%20x%3D%221135%22%20y%3D%22900%22%2F%3E%3C%2FArray%3E%3CmxPoint%20x%3D%221240%22%20y%3D%22900%22%20as%3D%22sourcePoint%22%2F%3E%3CmxPoint%20as%3D%22offset%22%2F%3E%3C%2FmxGeometry%3E%3C%2FmxCell%3E%3C%2Froot%3E%3C%2FmxGraphModel%3E&lt;/span&gt;" style="html=1;points=[];perimeter=orthogonalPerimeter;outlineConnect=0;targetShapes=umlLifeline;portConstraint=eastwest;newEdgeStyle={&quot;edgeStyle&quot;:&quot;elbowEdgeStyle&quot;,&quot;elbow&quot;:&quot;vertical&quot;,&quot;curved&quot;:0,&quot;rounded&quot;:0};" vertex="1" parent="rdlnQNbEjitJNy3FlGEy-51">
          <mxGeometry x="45" y="320" width="10" height="510" as="geometry" />
        </mxCell>
        <mxCell id="rdlnQNbEjitJNy3FlGEy-53" value="" style="endArrow=classic;html=1;rounded=0;" edge="1" parent="1" target="rdlnQNbEjitJNy3FlGEy-51">
          <mxGeometry width="50" height="50" relative="1" as="geometry">
            <mxPoint x="290" y="800" as="sourcePoint" />
            <mxPoint x="340" y="750" as="targetPoint" />
          </mxGeometry>
        </mxCell>
        <mxCell id="rdlnQNbEjitJNy3FlGEy-54" value="&lt;div style=&quot;text-align: center;&quot;&gt;&lt;span style=&quot;font-size: 11px; text-wrap: nowrap; background-color: rgb(255, 255, 255);&quot;&gt;6:Planes disponibles&lt;/span&gt;&lt;/div&gt;" style="text;whiteSpace=wrap;html=1;" vertex="1" parent="1">
          <mxGeometry x="320" y="770" width="180" height="40" as="geometry" />
        </mxCell>
        <mxCell id="rdlnQNbEjitJNy3FlGEy-55" value="" style="endArrow=classic;html=1;rounded=0;" edge="1" parent="1" target="rdlnQNbEjitJNy3FlGEy-44">
          <mxGeometry width="50" height="50" relative="1" as="geometry">
            <mxPoint x="650" y="840" as="sourcePoint" />
            <mxPoint x="1010" y="840" as="targetPoint" />
          </mxGeometry>
        </mxCell>
        <mxCell id="rdlnQNbEjitJNy3FlGEy-56" value="&lt;div style=&quot;text-align: center;&quot;&gt;&lt;span style=&quot;font-size: 11px; text-wrap: nowrap; background-color: rgb(255, 255, 255);&quot;&gt;7:Verificar la disponibilidad&lt;/span&gt;&lt;/div&gt;" style="text;whiteSpace=wrap;html=1;" vertex="1" parent="1">
          <mxGeometry x="850" y="800" width="180" height="40" as="geometry" />
        </mxCell>
        <mxCell id="rdlnQNbEjitJNy3FlGEy-57" value="" style="endArrow=classic;html=1;rounded=0;" edge="1" parent="1" source="rdlnQNbEjitJNy3FlGEy-44" target="rdlnQNbEjitJNy3FlGEy-33">
          <mxGeometry width="50" height="50" relative="1" as="geometry">
            <mxPoint x="770" y="740" as="sourcePoint" />
            <mxPoint x="820" y="690" as="targetPoint" />
            <Array as="points">
              <mxPoint x="1100" y="860" />
            </Array>
          </mxGeometry>
        </mxCell>
        <mxCell id="rdlnQNbEjitJNy3FlGEy-58" value="&lt;div style=&quot;text-align: center;&quot;&gt;&lt;span style=&quot;font-size: 11px; text-wrap: nowrap; background-color: rgb(255, 255, 255);&quot;&gt;8:Verifica la Agenda&lt;/span&gt;&lt;/div&gt;" style="text;whiteSpace=wrap;html=1;" vertex="1" parent="1">
          <mxGeometry x="1040" y="820" width="180" height="40" as="geometry" />
        </mxCell>
        <mxCell id="rdlnQNbEjitJNy3FlGEy-59" value="9:Agenda Disponible" style="html=1;verticalAlign=bottom;endArrow=open;dashed=1;endSize=8;edgeStyle=elbowEdgeStyle;elbow=horizontal;curved=0;rounded=0;" edge="1" parent="1" source="rdlnQNbEjitJNy3FlGEy-33" target="rdlnQNbEjitJNy3FlGEy-44">
          <mxGeometry relative="1" as="geometry">
            <mxPoint x="1040" y="900" as="targetPoint" />
            <Array as="points">
              <mxPoint x="1135" y="900" />
            </Array>
            <mxPoint x="1235" y="900" as="sourcePoint" />
            <mxPoint as="offset" />
          </mxGeometry>
        </mxCell>
        <mxCell id="rdlnQNbEjitJNy3FlGEy-60" value="10:Espacio&amp;nbsp; Disponible" style="html=1;verticalAlign=bottom;endArrow=open;dashed=1;endSize=8;edgeStyle=elbowEdgeStyle;elbow=horizontal;curved=0;rounded=0;" edge="1" parent="1" source="rdlnQNbEjitJNy3FlGEy-44" target="rdlnQNbEjitJNy3FlGEy-51">
          <mxGeometry x="0.464" y="20" relative="1" as="geometry">
            <mxPoint x="760" y="920" as="targetPoint" />
            <Array as="points">
              <mxPoint x="925" y="920" />
            </Array>
            <mxPoint x="1030" y="920" as="sourcePoint" />
            <mxPoint x="1" as="offset" />
          </mxGeometry>
        </mxCell>
        <mxCell id="rdlnQNbEjitJNy3FlGEy-71" value="" style="html=1;verticalAlign=bottom;endArrow=open;dashed=1;endSize=8;edgeStyle=elbowEdgeStyle;elbow=horizontal;curved=0;rounded=0;" edge="1" parent="1" source="rdlnQNbEjitJNy3FlGEy-65">
          <mxGeometry x="0.0651" y="30" relative="1" as="geometry">
            <mxPoint x="290" y="960" as="targetPoint" />
            <Array as="points">
              <mxPoint x="390" y="960" />
            </Array>
            <mxPoint x="640" y="960" as="sourcePoint" />
            <mxPoint as="offset" />
          </mxGeometry>
        </mxCell>
        <mxCell id="rdlnQNbEjitJNy3FlGEy-72" value="&lt;div style=&quot;text-align: center;&quot;&gt;&lt;span style=&quot;font-size: 11px; text-wrap: nowrap; background-color: rgb(255, 255, 255);&quot;&gt;11:Seleccione El Plan Deseado&lt;/span&gt;&lt;/div&gt;" style="text;whiteSpace=wrap;html=1;" vertex="1" parent="1">
          <mxGeometry x="300" y="930" width="180" height="40" as="geometry" />
        </mxCell>
        <mxCell id="rdlnQNbEjitJNy3FlGEy-76" value="13:Confirme Su Plan" style="html=1;verticalAlign=bottom;endArrow=open;dashed=1;endSize=8;edgeStyle=elbowEdgeStyle;elbow=horizontal;curved=0;rounded=0;" edge="1" parent="1" source="rdlnQNbEjitJNy3FlGEy-64" target="rdlnQNbEjitJNy3FlGEy-24">
          <mxGeometry relative="1" as="geometry">
            <mxPoint x="90" y="1000" as="targetPoint" />
            <Array as="points">
              <mxPoint x="185" y="1000" />
            </Array>
            <mxPoint x="285" y="1000" as="sourcePoint" />
            <mxPoint as="offset" />
          </mxGeometry>
        </mxCell>
        <mxCell id="rdlnQNbEjitJNy3FlGEy-77" value="" style="endArrow=classic;html=1;rounded=0;" edge="1" parent="1">
          <mxGeometry width="50" height="50" relative="1" as="geometry">
            <mxPoint x="80" y="1100" as="sourcePoint" />
            <mxPoint x="295.5" y="1100" as="targetPoint" />
          </mxGeometry>
        </mxCell>
        <mxCell id="rdlnQNbEjitJNy3FlGEy-78" value="&lt;div style=&quot;text-align: center;&quot;&gt;&lt;span style=&quot;font-size: 11px; text-wrap: nowrap; background-color: rgb(255, 255, 255);&quot;&gt;14:Plan Confirmado&lt;/span&gt;&lt;/div&gt;" style="text;whiteSpace=wrap;html=1;" vertex="1" parent="1">
          <mxGeometry x="120" y="1070" width="130" height="40" as="geometry" />
        </mxCell>
        <mxCell id="rdlnQNbEjitJNy3FlGEy-79" value="" style="endArrow=classic;html=1;rounded=0;" edge="1" parent="1" source="rdlnQNbEjitJNy3FlGEy-25" target="rdlnQNbEjitJNy3FlGEy-51">
          <mxGeometry width="50" height="50" relative="1" as="geometry">
            <mxPoint x="300" y="1160" as="sourcePoint" />
            <mxPoint x="515.5" y="1160" as="targetPoint" />
            <Array as="points">
              <mxPoint x="295" y="1180" />
            </Array>
          </mxGeometry>
        </mxCell>
        <mxCell id="rdlnQNbEjitJNy3FlGEy-80" value="&lt;div style=&quot;text-align: center;&quot;&gt;&lt;span style=&quot;font-size: 11px; text-wrap: nowrap; background-color: rgb(255, 255, 255);&quot;&gt;15: Solicitud dePlan Confirmado&lt;/span&gt;&lt;/div&gt;" style="text;whiteSpace=wrap;html=1;" vertex="1" parent="1">
          <mxGeometry x="320" y="1130" width="130" height="40" as="geometry" />
        </mxCell>
        <mxCell id="rdlnQNbEjitJNy3FlGEy-81" value="" style="endArrow=classic;html=1;rounded=0;" edge="1" parent="1" target="rdlnQNbEjitJNy3FlGEy-33">
          <mxGeometry width="50" height="50" relative="1" as="geometry">
            <mxPoint x="652.5" y="1240" as="sourcePoint" />
            <mxPoint x="1007.5" y="1240" as="targetPoint" />
            <Array as="points" />
          </mxGeometry>
        </mxCell>
        <mxCell id="rdlnQNbEjitJNy3FlGEy-82" value="&lt;div style=&quot;text-align: center;&quot;&gt;&lt;span style=&quot;font-size: 11px; text-wrap: nowrap; background-color: rgb(255, 255, 255);&quot;&gt;16: Solicitud dePlan Confirmado&lt;/span&gt;&lt;/div&gt;" style="text;whiteSpace=wrap;html=1;" vertex="1" parent="1">
          <mxGeometry x="1050" y="1200" width="130" height="40" as="geometry" />
        </mxCell>
        <mxCell id="rdlnQNbEjitJNy3FlGEy-84" value="17:Reservar Agenda" style="html=1;verticalAlign=bottom;endArrow=open;dashed=1;endSize=8;edgeStyle=elbowEdgeStyle;elbow=horizontal;curved=0;rounded=0;" edge="1" parent="1">
          <mxGeometry relative="1" as="geometry">
            <mxPoint x="1020" y="1310" as="targetPoint" />
            <Array as="points">
              <mxPoint x="1130" y="1310" />
            </Array>
            <mxPoint x="1240" y="1310" as="sourcePoint" />
            <mxPoint as="offset" />
          </mxGeometry>
        </mxCell>
        <mxCell id="rdlnQNbEjitJNy3FlGEy-85" value="17:Reservar Espacio De Agenda" style="html=1;verticalAlign=bottom;endArrow=open;dashed=1;endSize=8;edgeStyle=elbowEdgeStyle;elbow=horizontal;curved=0;rounded=0;" edge="1" parent="1">
          <mxGeometry y="50" relative="1" as="geometry">
            <mxPoint x="830" y="1340" as="targetPoint" />
            <Array as="points">
              <mxPoint x="930" y="1340" />
            </Array>
            <mxPoint x="1020" y="1340" as="sourcePoint" />
            <mxPoint as="offset" />
          </mxGeometry>
        </mxCell>
        <mxCell id="rdlnQNbEjitJNy3FlGEy-86" value="18:Reservar Espacio" style="html=1;verticalAlign=bottom;endArrow=open;dashed=1;endSize=8;edgeStyle=elbowEdgeStyle;elbow=horizontal;curved=0;rounded=0;" edge="1" parent="1" source="rdlnQNbEjitJNy3FlGEy-42">
          <mxGeometry y="50" relative="1" as="geometry">
            <mxPoint x="290" y="1410" as="targetPoint" />
            <Array as="points">
              <mxPoint x="730" y="1410" />
            </Array>
            <mxPoint x="820" y="1410" as="sourcePoint" />
            <mxPoint as="offset" />
          </mxGeometry>
        </mxCell>
        <mxCell id="rdlnQNbEjitJNy3FlGEy-87" value="19:Reserva Confirmada" style="html=1;verticalAlign=bottom;endArrow=open;dashed=1;endSize=8;edgeStyle=elbowEdgeStyle;elbow=horizontal;curved=0;rounded=0;" edge="1" parent="1">
          <mxGeometry y="-10" relative="1" as="geometry">
            <mxPoint x="80" y="1480" as="targetPoint" />
            <Array as="points" />
            <mxPoint x="300" y="1480" as="sourcePoint" />
            <mxPoint as="offset" />
          </mxGeometry>
        </mxCell>
        <mxCell id="rdlnQNbEjitJNy3FlGEy-136" value="&lt;font style=&quot;vertical-align: inherit;&quot;&gt;&lt;font style=&quot;vertical-align: inherit;&quot;&gt;Administrador&lt;/font&gt;&lt;/font&gt;" style="shape=umlLifeline;perimeter=lifelinePerimeter;whiteSpace=wrap;html=1;container=0;dropTarget=0;collapsible=0;recursiveResize=0;outlineConnect=0;portConstraint=eastwest;newEdgeStyle={&quot;edgeStyle&quot;:&quot;elbowEdgeStyle&quot;,&quot;elbow&quot;:&quot;vertical&quot;,&quot;curved&quot;:0,&quot;rounded&quot;:0};" vertex="1" parent="1">
          <mxGeometry x="70" y="1760" width="120" height="560" as="geometry" />
        </mxCell>
        <mxCell id="rdlnQNbEjitJNy3FlGEy-137" value="Sistema de Gestion" style="shape=umlLifeline;perimeter=lifelinePerimeter;whiteSpace=wrap;html=1;container=0;dropTarget=0;collapsible=0;recursiveResize=0;outlineConnect=0;portConstraint=eastwest;newEdgeStyle={&quot;edgeStyle&quot;:&quot;elbowEdgeStyle&quot;,&quot;elbow&quot;:&quot;vertical&quot;,&quot;curved&quot;:0,&quot;rounded&quot;:0};" vertex="1" parent="1">
          <mxGeometry x="250" y="1760" width="80" height="560" as="geometry" />
        </mxCell>
        <mxCell id="rdlnQNbEjitJNy3FlGEy-138" value="&lt;span style=&quot;color: rgba(0, 0, 0, 0); font-family: monospace; font-size: 0px; text-align: start;&quot;&gt;%3CmxGraphModel%3E%3Croot%3E%3CmxCell%20id%3D%220%22%2F%3E%3CmxCell%20id%3D%221%22%20parent%3D%220%22%2F%3E%3CmxCell%20id%3D%222%22%20value%3D%229%3AAgenda%20Disponible%22%20style%3D%22html%3D1%3BverticalAlign%3Dbottom%3BendArrow%3Dopen%3Bdashed%3D1%3BendSize%3D8%3BedgeStyle%3DelbowEdgeStyle%3Belbow%3Dhorizontal%3Bcurved%3D0%3Brounded%3D0%3BexitX%3D0.5%3BexitY%3D0.885%3BexitDx%3D0%3BexitDy%3D0%3BexitPerimeter%3D0%3BentryX%3D0.545%3BentryY%3D0.885%3BentryDx%3D0%3BentryDy%3D0%3BentryPerimeter%3D0%3B%22%20edge%3D%221%22%20parent%3D%221%22%3E%3CmxGeometry%20relative%3D%221%22%20as%3D%22geometry%22%3E%3CmxPoint%20x%3D%221030%22%20y%3D%22900%22%20as%3D%22targetPoint%22%2F%3E%3CArray%20as%3D%22points%22%3E%3CmxPoint%20x%3D%221135%22%20y%3D%22900%22%2F%3E%3C%2FArray%3E%3CmxPoint%20x%3D%221240%22%20y%3D%22900%22%20as%3D%22sourcePoint%22%2F%3E%3CmxPoint%20as%3D%22offset%22%2F%3E%3C%2FmxGeometry%3E%3C%2FmxCell%3E%3C%2Froot%3E%3C%2FmxGraphModel%3E&lt;/span&gt;" style="html=1;points=[];perimeter=orthogonalPerimeter;outlineConnect=0;targetShapes=umlLifeline;portConstraint=eastwest;newEdgeStyle={&quot;edgeStyle&quot;:&quot;elbowEdgeStyle&quot;,&quot;elbow&quot;:&quot;vertical&quot;,&quot;curved&quot;:0,&quot;rounded&quot;:0};" vertex="1" parent="rdlnQNbEjitJNy3FlGEy-137">
          <mxGeometry x="45" y="70" width="10" height="70" as="geometry" />
        </mxCell>
        <mxCell id="rdlnQNbEjitJNy3FlGEy-141" value="&lt;font style=&quot;vertical-align: inherit;&quot;&gt;&lt;font style=&quot;vertical-align: inherit;&quot;&gt;&lt;font style=&quot;vertical-align: inherit;&quot;&gt;&lt;font style=&quot;vertical-align: inherit;&quot;&gt;Base de Datos&lt;/font&gt;&lt;/font&gt;&lt;/font&gt;&lt;/font&gt;" style="shape=umlLifeline;perimeter=lifelinePerimeter;whiteSpace=wrap;html=1;container=0;dropTarget=0;collapsible=0;recursiveResize=0;outlineConnect=0;portConstraint=eastwest;newEdgeStyle={&quot;edgeStyle&quot;:&quot;elbowEdgeStyle&quot;,&quot;elbow&quot;:&quot;vertical&quot;,&quot;curved&quot;:0,&quot;rounded&quot;:0};" vertex="1" parent="1">
          <mxGeometry x="675" y="1770" width="105" height="560" as="geometry" />
        </mxCell>
        <mxCell id="rdlnQNbEjitJNy3FlGEy-142" value="" style="html=1;points=[];perimeter=orthogonalPerimeter;outlineConnect=0;targetShapes=umlLifeline;portConstraint=eastwest;newEdgeStyle={&quot;edgeStyle&quot;:&quot;elbowEdgeStyle&quot;,&quot;elbow&quot;:&quot;vertical&quot;,&quot;curved&quot;:0,&quot;rounded&quot;:0};" vertex="1" parent="rdlnQNbEjitJNy3FlGEy-141">
          <mxGeometry x="45" y="100" width="10" height="370" as="geometry" />
        </mxCell>
        <mxCell id="rdlnQNbEjitJNy3FlGEy-143" value="" style="html=1;verticalAlign=bottom;endArrow=block;edgeStyle=elbowEdgeStyle;elbow=vertical;curved=0;rounded=0;exitX=0.916;exitY=0.952;exitDx=0;exitDy=0;exitPerimeter=0;" edge="1" parent="1" source="rdlnQNbEjitJNy3FlGEy-146" target="rdlnQNbEjitJNy3FlGEy-141">
          <mxGeometry relative="1" as="geometry">
            <mxPoint x="325" y="1860" as="sourcePoint" />
            <Array as="points">
              <mxPoint x="415" y="1880" />
            </Array>
            <mxPoint x="495" y="1860" as="targetPoint" />
          </mxGeometry>
        </mxCell>
        <mxCell id="rdlnQNbEjitJNy3FlGEy-144" value="&lt;div style=&quot;text-align: center;&quot;&gt;&lt;span style=&quot;font-size: 11px; text-wrap: nowrap; background-color: rgb(255, 255, 255);&quot;&gt;&lt;font style=&quot;vertical-align: inherit;&quot;&gt;&lt;font style=&quot;vertical-align: inherit;&quot;&gt;2:Validacion de Usuario&lt;/font&gt;&lt;/font&gt;&lt;/span&gt;&lt;/div&gt;" style="text;whiteSpace=wrap;html=1;" vertex="1" parent="1">
          <mxGeometry x="340" y="1850" width="110" height="40" as="geometry" />
        </mxCell>
        <mxCell id="rdlnQNbEjitJNy3FlGEy-145" value="" style="html=1;verticalAlign=bottom;endArrow=block;edgeStyle=elbowEdgeStyle;elbow=vertical;curved=0;rounded=0;" edge="1" parent="1" source="rdlnQNbEjitJNy3FlGEy-137" target="rdlnQNbEjitJNy3FlGEy-146">
          <mxGeometry relative="1" as="geometry">
            <mxPoint x="305" y="1860" as="sourcePoint" />
            <Array as="points" />
            <mxPoint x="475" y="1860" as="targetPoint" />
          </mxGeometry>
        </mxCell>
        <mxCell id="rdlnQNbEjitJNy3FlGEy-146" value="&lt;div style=&quot;text-align: center;&quot;&gt;&lt;span style=&quot;font-size: 11px; text-wrap: nowrap; background-color: rgb(255, 255, 255);&quot;&gt;&lt;font style=&quot;vertical-align: inherit;&quot;&gt;&lt;font style=&quot;vertical-align: inherit;&quot;&gt;&lt;font style=&quot;vertical-align: inherit;&quot;&gt;&lt;font style=&quot;vertical-align: inherit;&quot;&gt;1: Inisio de Sesion&lt;/font&gt;&lt;/font&gt;&lt;/font&gt;&lt;/font&gt;&lt;/span&gt;&lt;/div&gt;" style="text;whiteSpace=wrap;html=1;" vertex="1" parent="1">
          <mxGeometry x="125" y="1840" width="200" height="40" as="geometry" />
        </mxCell>
        <mxCell id="rdlnQNbEjitJNy3FlGEy-147" value="" style="html=1;verticalAlign=bottom;endArrow=open;dashed=1;endSize=8;edgeStyle=elbowEdgeStyle;elbow=horizontal;curved=0;rounded=0;" edge="1" parent="1" source="rdlnQNbEjitJNy3FlGEy-142">
          <mxGeometry x="-0.0051" y="-20" relative="1" as="geometry">
            <mxPoint x="292.5" y="1940" as="targetPoint" />
            <Array as="points">
              <mxPoint x="387.5" y="1940" />
            </Array>
            <mxPoint x="487.5" y="1940" as="sourcePoint" />
            <mxPoint as="offset" />
          </mxGeometry>
        </mxCell>
        <mxCell id="rdlnQNbEjitJNy3FlGEy-148" value="" style="endArrow=classic;html=1;rounded=0;entryX=0.878;entryY=0.931;entryDx=0;entryDy=0;entryPerimeter=0;" edge="1" parent="1" source="rdlnQNbEjitJNy3FlGEy-136" target="rdlnQNbEjitJNy3FlGEy-146">
          <mxGeometry width="50" height="50" relative="1" as="geometry">
            <mxPoint x="135" y="1920" as="sourcePoint" />
            <mxPoint x="185" y="1870" as="targetPoint" />
          </mxGeometry>
        </mxCell>
        <mxCell id="rdlnQNbEjitJNy3FlGEy-150" value="&lt;div style=&quot;text-align: center;&quot;&gt;&lt;span style=&quot;font-size: 11px; text-wrap: nowrap; background-color: rgb(255, 255, 255);&quot;&gt;4:Crear Agenda&lt;/span&gt;&lt;/div&gt;" style="text;whiteSpace=wrap;html=1;" vertex="1" parent="1">
          <mxGeometry x="130" y="1950" width="130" height="40" as="geometry" />
        </mxCell>
        <mxCell id="rdlnQNbEjitJNy3FlGEy-154" value="" style="endArrow=classic;html=1;rounded=0;" edge="1" parent="1" target="rdlnQNbEjitJNy3FlGEy-176">
          <mxGeometry width="50" height="50" relative="1" as="geometry">
            <mxPoint x="287.25" y="2020" as="sourcePoint" />
            <mxPoint x="502.75" y="2020" as="targetPoint" />
          </mxGeometry>
        </mxCell>
        <mxCell id="rdlnQNbEjitJNy3FlGEy-156" value="&lt;div style=&quot;text-align: center;&quot;&gt;&lt;span style=&quot;font-size: 11px; text-wrap: nowrap; background-color: rgb(255, 255, 255);&quot;&gt;9:Confirmacion de Guardado&lt;/span&gt;&lt;/div&gt;" style="text;whiteSpace=wrap;html=1;" vertex="1" parent="1">
          <mxGeometry x="135" y="2290" width="130" height="40" as="geometry" />
        </mxCell>
        <mxCell id="rdlnQNbEjitJNy3FlGEy-158" value="" style="endArrow=classic;html=1;rounded=0;" edge="1" parent="1">
          <mxGeometry width="50" height="50" relative="1" as="geometry">
            <mxPoint x="130" y="1989" as="sourcePoint" />
            <mxPoint x="291" y="1989" as="targetPoint" />
          </mxGeometry>
        </mxCell>
        <mxCell id="rdlnQNbEjitJNy3FlGEy-159" value="&lt;div style=&quot;text-align: center;&quot;&gt;&lt;span style=&quot;font-size: 11px; text-wrap: nowrap; background-color: rgb(255, 255, 255);&quot;&gt;&lt;font style=&quot;vertical-align: inherit;&quot;&gt;&lt;font style=&quot;vertical-align: inherit;&quot;&gt;5: Validacion de Datos&lt;/font&gt;&lt;/font&gt;&lt;/span&gt;&lt;/div&gt;" style="text;whiteSpace=wrap;html=1;" vertex="1" parent="1">
          <mxGeometry x="310" y="2020" width="110" height="40" as="geometry" />
        </mxCell>
        <mxCell id="rdlnQNbEjitJNy3FlGEy-160" value="&lt;div style=&quot;text-align: center;&quot;&gt;&lt;span style=&quot;font-size: 11px; text-wrap: nowrap; background-color: rgb(255, 255, 255);&quot;&gt;&lt;font style=&quot;vertical-align: inherit;&quot;&gt;&lt;font style=&quot;vertical-align: inherit;&quot;&gt;3:Validacion de Datos&lt;/font&gt;&lt;/font&gt;&lt;/span&gt;&lt;/div&gt;" style="text;whiteSpace=wrap;html=1;" vertex="1" parent="1">
          <mxGeometry x="350" y="1910" width="110" height="40" as="geometry" />
        </mxCell>
        <mxCell id="rdlnQNbEjitJNy3FlGEy-165" value="&lt;div style=&quot;text-align: center;&quot;&gt;&lt;span style=&quot;font-size: 11px; text-wrap: nowrap; background-color: rgb(255, 255, 255);&quot;&gt;6: Datos Validos&lt;/span&gt;&lt;/div&gt;" style="text;whiteSpace=wrap;html=1;" vertex="1" parent="1">
          <mxGeometry x="490" y="2040" width="110" height="40" as="geometry" />
        </mxCell>
        <mxCell id="rdlnQNbEjitJNy3FlGEy-166" value="" style="endArrow=classic;html=1;rounded=0;" edge="1" parent="1" target="rdlnQNbEjitJNy3FlGEy-141">
          <mxGeometry width="50" height="50" relative="1" as="geometry">
            <mxPoint x="294.5" y="2120" as="sourcePoint" />
            <mxPoint x="455.5" y="2120" as="targetPoint" />
          </mxGeometry>
        </mxCell>
        <mxCell id="rdlnQNbEjitJNy3FlGEy-167" value="&lt;div style=&quot;text-align: center;&quot;&gt;&lt;span style=&quot;font-size: 11px; text-wrap: nowrap; background-color: rgb(255, 255, 255);&quot;&gt;7: Guardar Agenda&lt;/span&gt;&lt;/div&gt;" style="text;whiteSpace=wrap;html=1;" vertex="1" parent="1">
          <mxGeometry x="330" y="2120" width="110" height="40" as="geometry" />
        </mxCell>
        <mxCell id="rdlnQNbEjitJNy3FlGEy-170" value="&lt;div style=&quot;text-align: center;&quot;&gt;&lt;span style=&quot;font-size: 11px; text-wrap: nowrap; background-color: rgb(255, 255, 255);&quot;&gt;8: Guardar Agenda&lt;/span&gt;&lt;/div&gt;" style="text;whiteSpace=wrap;html=1;" vertex="1" parent="1">
          <mxGeometry x="550" y="2180" width="110" height="40" as="geometry" />
        </mxCell>
        <mxCell id="rdlnQNbEjitJNy3FlGEy-175" value="Agenda" style="shape=umlLifeline;perimeter=lifelinePerimeter;whiteSpace=wrap;html=1;container=0;dropTarget=0;collapsible=0;recursiveResize=0;outlineConnect=0;portConstraint=eastwest;newEdgeStyle={&quot;edgeStyle&quot;:&quot;elbowEdgeStyle&quot;,&quot;elbow&quot;:&quot;vertical&quot;,&quot;curved&quot;:0,&quot;rounded&quot;:0};" vertex="1" parent="1">
          <mxGeometry x="420" y="1940" width="80" height="400" as="geometry" />
        </mxCell>
        <mxCell id="rdlnQNbEjitJNy3FlGEy-176" value="&lt;span style=&quot;color: rgba(0, 0, 0, 0); font-family: monospace; font-size: 0px; text-align: start;&quot;&gt;%3CmxGraphModel%3E%3Croot%3E%3CmxCell%20id%3D%220%22%2F%3E%3CmxCell%20id%3D%221%22%20parent%3D%220%22%2F%3E%3CmxCell%20id%3D%222%22%20value%3D%229%3AAgenda%20Disponible%22%20style%3D%22html%3D1%3BverticalAlign%3Dbottom%3BendArrow%3Dopen%3Bdashed%3D1%3BendSize%3D8%3BedgeStyle%3DelbowEdgeStyle%3Belbow%3Dhorizontal%3Bcurved%3D0%3Brounded%3D0%3BexitX%3D0.5%3BexitY%3D0.885%3BexitDx%3D0%3BexitDy%3D0%3BexitPerimeter%3D0%3BentryX%3D0.545%3BentryY%3D0.885%3BentryDx%3D0%3BentryDy%3D0%3BentryPerimeter%3D0%3B%22%20edge%3D%221%22%20parent%3D%221%22%3E%3CmxGeometry%20relative%3D%221%22%20as%3D%22geometry%22%3E%3CmxPoint%20x%3D%221030%22%20y%3D%22900%22%20as%3D%22targetPoint%22%2F%3E%3CArray%20as%3D%22points%22%3E%3CmxPoint%20x%3D%221135%22%20y%3D%22900%22%2F%3E%3C%2FArray%3E%3CmxPoint%20x%3D%221240%22%20y%3D%22900%22%20as%3D%22sourcePoint%22%2F%3E%3CmxPoint%20as%3D%22offset%22%2F%3E%3C%2FmxGeometry%3E%3C%2FmxCell%3E%3C%2Froot%3E%3C%2FmxGraphModel%3E&lt;/span&gt;" style="html=1;points=[];perimeter=orthogonalPerimeter;outlineConnect=0;targetShapes=umlLifeline;portConstraint=eastwest;newEdgeStyle={&quot;edgeStyle&quot;:&quot;elbowEdgeStyle&quot;,&quot;elbow&quot;:&quot;vertical&quot;,&quot;curved&quot;:0,&quot;rounded&quot;:0};" vertex="1" parent="rdlnQNbEjitJNy3FlGEy-175">
          <mxGeometry x="35" y="40" width="10" height="310" as="geometry" />
        </mxCell>
        <mxCell id="rdlnQNbEjitJNy3FlGEy-177" value="" style="endArrow=classic;html=1;rounded=0;" edge="1" parent="1" target="rdlnQNbEjitJNy3FlGEy-141">
          <mxGeometry width="50" height="50" relative="1" as="geometry">
            <mxPoint x="460" y="2080" as="sourcePoint" />
            <mxPoint x="601" y="2080" as="targetPoint" />
          </mxGeometry>
        </mxCell>
        <mxCell id="rdlnQNbEjitJNy3FlGEy-178" value="" style="html=1;verticalAlign=bottom;endArrow=open;dashed=1;endSize=8;edgeStyle=elbowEdgeStyle;elbow=horizontal;curved=0;rounded=0;" edge="1" parent="1" source="rdlnQNbEjitJNy3FlGEy-142">
          <mxGeometry x="-0.0051" y="-20" relative="1" as="geometry">
            <mxPoint x="460" y="2219" as="targetPoint" />
            <Array as="points">
              <mxPoint x="725" y="2210" />
            </Array>
            <mxPoint x="756.25" y="2219" as="sourcePoint" />
            <mxPoint as="offset" />
          </mxGeometry>
        </mxCell>
        <mxCell id="rdlnQNbEjitJNy3FlGEy-179" value="" style="html=1;verticalAlign=bottom;endArrow=open;dashed=1;endSize=8;edgeStyle=elbowEdgeStyle;elbow=horizontal;curved=0;rounded=0;" edge="1" parent="1">
          <mxGeometry x="-0.0051" y="-20" relative="1" as="geometry">
            <mxPoint x="286.25" y="2260" as="targetPoint" />
            <Array as="points" />
            <mxPoint x="460" y="2260" as="sourcePoint" />
            <mxPoint as="offset" />
          </mxGeometry>
        </mxCell>
        <mxCell id="rdlnQNbEjitJNy3FlGEy-180" value="&lt;div style=&quot;text-align: center;&quot;&gt;&lt;span style=&quot;font-size: 11px; text-wrap: nowrap; background-color: rgb(255, 255, 255);&quot;&gt;9: Agenda Guardada&lt;/span&gt;&lt;/div&gt;" style="text;whiteSpace=wrap;html=1;" vertex="1" parent="1">
          <mxGeometry x="325" y="2270" width="110" height="40" as="geometry" />
        </mxCell>
        <mxCell id="rdlnQNbEjitJNy3FlGEy-181" value="" style="html=1;verticalAlign=bottom;endArrow=open;dashed=1;endSize=8;edgeStyle=elbowEdgeStyle;elbow=horizontal;curved=0;rounded=0;" edge="1" parent="1">
          <mxGeometry x="-0.0051" y="-20" relative="1" as="geometry">
            <mxPoint x="130" y="2270" as="targetPoint" />
            <Array as="points" />
            <mxPoint x="290" y="2270" as="sourcePoint" />
            <mxPoint as="offset" />
          </mxGeometry>
        </mxCell>
        <mxCell id="rdlnQNbEjitJNy3FlGEy-182" value="&lt;font style=&quot;vertical-align: inherit;&quot;&gt;&lt;font style=&quot;vertical-align: inherit;&quot;&gt;Administrador&lt;/font&gt;&lt;/font&gt;" style="shape=umlLifeline;perimeter=lifelinePerimeter;whiteSpace=wrap;html=1;container=0;dropTarget=0;collapsible=0;recursiveResize=0;outlineConnect=0;portConstraint=eastwest;newEdgeStyle={&quot;edgeStyle&quot;:&quot;elbowEdgeStyle&quot;,&quot;elbow&quot;:&quot;vertical&quot;,&quot;curved&quot;:0,&quot;rounded&quot;:0};" vertex="1" parent="1">
          <mxGeometry x="80" y="2400" width="120" height="560" as="geometry" />
        </mxCell>
        <mxCell id="rdlnQNbEjitJNy3FlGEy-183" value="Sistema de Gestion" style="shape=umlLifeline;perimeter=lifelinePerimeter;whiteSpace=wrap;html=1;container=0;dropTarget=0;collapsible=0;recursiveResize=0;outlineConnect=0;portConstraint=eastwest;newEdgeStyle={&quot;edgeStyle&quot;:&quot;elbowEdgeStyle&quot;,&quot;elbow&quot;:&quot;vertical&quot;,&quot;curved&quot;:0,&quot;rounded&quot;:0};" vertex="1" parent="1">
          <mxGeometry x="260" y="2400" width="80" height="560" as="geometry" />
        </mxCell>
        <mxCell id="rdlnQNbEjitJNy3FlGEy-184" value="&lt;span style=&quot;color: rgba(0, 0, 0, 0); font-family: monospace; font-size: 0px; text-align: start;&quot;&gt;%3CmxGraphModel%3E%3Croot%3E%3CmxCell%20id%3D%220%22%2F%3E%3CmxCell%20id%3D%221%22%20parent%3D%220%22%2F%3E%3CmxCell%20id%3D%222%22%20value%3D%229%3AAgenda%20Disponible%22%20style%3D%22html%3D1%3BverticalAlign%3Dbottom%3BendArrow%3Dopen%3Bdashed%3D1%3BendSize%3D8%3BedgeStyle%3DelbowEdgeStyle%3Belbow%3Dhorizontal%3Bcurved%3D0%3Brounded%3D0%3BexitX%3D0.5%3BexitY%3D0.885%3BexitDx%3D0%3BexitDy%3D0%3BexitPerimeter%3D0%3BentryX%3D0.545%3BentryY%3D0.885%3BentryDx%3D0%3BentryDy%3D0%3BentryPerimeter%3D0%3B%22%20edge%3D%221%22%20parent%3D%221%22%3E%3CmxGeometry%20relative%3D%221%22%20as%3D%22geometry%22%3E%3CmxPoint%20x%3D%221030%22%20y%3D%22900%22%20as%3D%22targetPoint%22%2F%3E%3CArray%20as%3D%22points%22%3E%3CmxPoint%20x%3D%221135%22%20y%3D%22900%22%2F%3E%3C%2FArray%3E%3CmxPoint%20x%3D%221240%22%20y%3D%22900%22%20as%3D%22sourcePoint%22%2F%3E%3CmxPoint%20as%3D%22offset%22%2F%3E%3C%2FmxGeometry%3E%3C%2FmxCell%3E%3C%2Froot%3E%3C%2FmxGraphModel%3E&lt;/span&gt;" style="html=1;points=[];perimeter=orthogonalPerimeter;outlineConnect=0;targetShapes=umlLifeline;portConstraint=eastwest;newEdgeStyle={&quot;edgeStyle&quot;:&quot;elbowEdgeStyle&quot;,&quot;elbow&quot;:&quot;vertical&quot;,&quot;curved&quot;:0,&quot;rounded&quot;:0};" vertex="1" parent="rdlnQNbEjitJNy3FlGEy-183">
          <mxGeometry x="45" y="70" width="10" height="70" as="geometry" />
        </mxCell>
        <mxCell id="rdlnQNbEjitJNy3FlGEy-185" value="&lt;font style=&quot;vertical-align: inherit;&quot;&gt;&lt;font style=&quot;vertical-align: inherit;&quot;&gt;&lt;font style=&quot;vertical-align: inherit;&quot;&gt;&lt;font style=&quot;vertical-align: inherit;&quot;&gt;Base de Datos&lt;/font&gt;&lt;/font&gt;&lt;/font&gt;&lt;/font&gt;" style="shape=umlLifeline;perimeter=lifelinePerimeter;whiteSpace=wrap;html=1;container=0;dropTarget=0;collapsible=0;recursiveResize=0;outlineConnect=0;portConstraint=eastwest;newEdgeStyle={&quot;edgeStyle&quot;:&quot;elbowEdgeStyle&quot;,&quot;elbow&quot;:&quot;vertical&quot;,&quot;curved&quot;:0,&quot;rounded&quot;:0};" vertex="1" parent="1">
          <mxGeometry x="685" y="2410" width="105" height="560" as="geometry" />
        </mxCell>
        <mxCell id="rdlnQNbEjitJNy3FlGEy-186" value="" style="html=1;points=[];perimeter=orthogonalPerimeter;outlineConnect=0;targetShapes=umlLifeline;portConstraint=eastwest;newEdgeStyle={&quot;edgeStyle&quot;:&quot;elbowEdgeStyle&quot;,&quot;elbow&quot;:&quot;vertical&quot;,&quot;curved&quot;:0,&quot;rounded&quot;:0};" vertex="1" parent="rdlnQNbEjitJNy3FlGEy-185">
          <mxGeometry x="45" y="100" width="10" height="370" as="geometry" />
        </mxCell>
        <mxCell id="rdlnQNbEjitJNy3FlGEy-187" value="" style="html=1;verticalAlign=bottom;endArrow=block;edgeStyle=elbowEdgeStyle;elbow=vertical;curved=0;rounded=0;exitX=0.916;exitY=0.952;exitDx=0;exitDy=0;exitPerimeter=0;" edge="1" parent="1" source="rdlnQNbEjitJNy3FlGEy-190" target="rdlnQNbEjitJNy3FlGEy-185">
          <mxGeometry relative="1" as="geometry">
            <mxPoint x="335" y="2500" as="sourcePoint" />
            <Array as="points">
              <mxPoint x="425" y="2520" />
            </Array>
            <mxPoint x="505" y="2500" as="targetPoint" />
          </mxGeometry>
        </mxCell>
        <mxCell id="rdlnQNbEjitJNy3FlGEy-188" value="&lt;div style=&quot;text-align: center;&quot;&gt;&lt;span style=&quot;font-size: 11px; text-wrap: nowrap; background-color: rgb(255, 255, 255);&quot;&gt;&lt;font style=&quot;vertical-align: inherit;&quot;&gt;&lt;font style=&quot;vertical-align: inherit;&quot;&gt;2:Validacion de Usuario&lt;/font&gt;&lt;/font&gt;&lt;/span&gt;&lt;/div&gt;" style="text;whiteSpace=wrap;html=1;" vertex="1" parent="1">
          <mxGeometry x="350" y="2490" width="110" height="40" as="geometry" />
        </mxCell>
        <mxCell id="rdlnQNbEjitJNy3FlGEy-189" value="" style="html=1;verticalAlign=bottom;endArrow=block;edgeStyle=elbowEdgeStyle;elbow=vertical;curved=0;rounded=0;" edge="1" parent="1" source="rdlnQNbEjitJNy3FlGEy-183" target="rdlnQNbEjitJNy3FlGEy-190">
          <mxGeometry relative="1" as="geometry">
            <mxPoint x="315" y="2500" as="sourcePoint" />
            <Array as="points" />
            <mxPoint x="485" y="2500" as="targetPoint" />
          </mxGeometry>
        </mxCell>
        <mxCell id="rdlnQNbEjitJNy3FlGEy-190" value="&lt;div style=&quot;text-align: center;&quot;&gt;&lt;span style=&quot;font-size: 11px; text-wrap: nowrap; background-color: rgb(255, 255, 255);&quot;&gt;&lt;font style=&quot;vertical-align: inherit;&quot;&gt;&lt;font style=&quot;vertical-align: inherit;&quot;&gt;&lt;font style=&quot;vertical-align: inherit;&quot;&gt;&lt;font style=&quot;vertical-align: inherit;&quot;&gt;1: Inisio de Sesion&lt;/font&gt;&lt;/font&gt;&lt;/font&gt;&lt;/font&gt;&lt;/span&gt;&lt;/div&gt;" style="text;whiteSpace=wrap;html=1;" vertex="1" parent="1">
          <mxGeometry x="135" y="2480" width="200" height="40" as="geometry" />
        </mxCell>
        <mxCell id="rdlnQNbEjitJNy3FlGEy-191" value="" style="html=1;verticalAlign=bottom;endArrow=open;dashed=1;endSize=8;edgeStyle=elbowEdgeStyle;elbow=horizontal;curved=0;rounded=0;" edge="1" parent="1" source="rdlnQNbEjitJNy3FlGEy-186">
          <mxGeometry x="-0.0051" y="-20" relative="1" as="geometry">
            <mxPoint x="302.5" y="2580" as="targetPoint" />
            <Array as="points">
              <mxPoint x="397.5" y="2580" />
            </Array>
            <mxPoint x="497.5" y="2580" as="sourcePoint" />
            <mxPoint as="offset" />
          </mxGeometry>
        </mxCell>
        <mxCell id="rdlnQNbEjitJNy3FlGEy-192" value="" style="endArrow=classic;html=1;rounded=0;entryX=0.878;entryY=0.931;entryDx=0;entryDy=0;entryPerimeter=0;" edge="1" parent="1" source="rdlnQNbEjitJNy3FlGEy-182" target="rdlnQNbEjitJNy3FlGEy-190">
          <mxGeometry width="50" height="50" relative="1" as="geometry">
            <mxPoint x="145" y="2560" as="sourcePoint" />
            <mxPoint x="195" y="2510" as="targetPoint" />
          </mxGeometry>
        </mxCell>
        <mxCell id="rdlnQNbEjitJNy3FlGEy-193" value="&lt;div style=&quot;text-align: center;&quot;&gt;&lt;span style=&quot;font-size: 11px; text-wrap: nowrap; background-color: rgb(255, 255, 255);&quot;&gt;4:Crear Planes&lt;/span&gt;&lt;/div&gt;" style="text;whiteSpace=wrap;html=1;" vertex="1" parent="1">
          <mxGeometry x="140" y="2590" width="130" height="40" as="geometry" />
        </mxCell>
        <mxCell id="rdlnQNbEjitJNy3FlGEy-194" value="" style="endArrow=classic;html=1;rounded=0;" edge="1" parent="1" target="rdlnQNbEjitJNy3FlGEy-204">
          <mxGeometry width="50" height="50" relative="1" as="geometry">
            <mxPoint x="297.25" y="2660" as="sourcePoint" />
            <mxPoint x="512.75" y="2660" as="targetPoint" />
          </mxGeometry>
        </mxCell>
        <mxCell id="rdlnQNbEjitJNy3FlGEy-195" value="&lt;div style=&quot;text-align: center;&quot;&gt;&lt;span style=&quot;font-size: 11px; text-wrap: nowrap; background-color: rgb(255, 255, 255);&quot;&gt;9:Confirmacion de Guardado&lt;/span&gt;&lt;/div&gt;" style="text;whiteSpace=wrap;html=1;" vertex="1" parent="1">
          <mxGeometry x="145" y="2930" width="130" height="40" as="geometry" />
        </mxCell>
        <mxCell id="rdlnQNbEjitJNy3FlGEy-196" value="" style="endArrow=classic;html=1;rounded=0;" edge="1" parent="1">
          <mxGeometry width="50" height="50" relative="1" as="geometry">
            <mxPoint x="140" y="2629" as="sourcePoint" />
            <mxPoint x="301" y="2629" as="targetPoint" />
          </mxGeometry>
        </mxCell>
        <mxCell id="rdlnQNbEjitJNy3FlGEy-197" value="&lt;div style=&quot;text-align: center;&quot;&gt;&lt;span style=&quot;font-size: 11px; text-wrap: nowrap; background-color: rgb(255, 255, 255);&quot;&gt;&lt;font style=&quot;vertical-align: inherit;&quot;&gt;&lt;font style=&quot;vertical-align: inherit;&quot;&gt;5: Validacion de Datos&lt;/font&gt;&lt;/font&gt;&lt;/span&gt;&lt;/div&gt;" style="text;whiteSpace=wrap;html=1;" vertex="1" parent="1">
          <mxGeometry x="320" y="2660" width="110" height="40" as="geometry" />
        </mxCell>
        <mxCell id="rdlnQNbEjitJNy3FlGEy-198" value="&lt;div style=&quot;text-align: center;&quot;&gt;&lt;span style=&quot;font-size: 11px; text-wrap: nowrap; background-color: rgb(255, 255, 255);&quot;&gt;&lt;font style=&quot;vertical-align: inherit;&quot;&gt;&lt;font style=&quot;vertical-align: inherit;&quot;&gt;3:Validacion de Datos&lt;/font&gt;&lt;/font&gt;&lt;/span&gt;&lt;/div&gt;" style="text;whiteSpace=wrap;html=1;" vertex="1" parent="1">
          <mxGeometry x="360" y="2550" width="110" height="40" as="geometry" />
        </mxCell>
        <mxCell id="rdlnQNbEjitJNy3FlGEy-199" value="&lt;div style=&quot;text-align: center;&quot;&gt;&lt;span style=&quot;font-size: 11px; text-wrap: nowrap; background-color: rgb(255, 255, 255);&quot;&gt;6: Datos Validos&lt;/span&gt;&lt;/div&gt;" style="text;whiteSpace=wrap;html=1;" vertex="1" parent="1">
          <mxGeometry x="500" y="2680" width="110" height="40" as="geometry" />
        </mxCell>
        <mxCell id="rdlnQNbEjitJNy3FlGEy-200" value="" style="endArrow=classic;html=1;rounded=0;" edge="1" parent="1" target="rdlnQNbEjitJNy3FlGEy-185">
          <mxGeometry width="50" height="50" relative="1" as="geometry">
            <mxPoint x="304.5" y="2760" as="sourcePoint" />
            <mxPoint x="465.5" y="2760" as="targetPoint" />
          </mxGeometry>
        </mxCell>
        <mxCell id="rdlnQNbEjitJNy3FlGEy-201" value="&lt;div style=&quot;text-align: center;&quot;&gt;&lt;span style=&quot;font-size: 11px; text-wrap: nowrap; background-color: rgb(255, 255, 255);&quot;&gt;7: Guardar Planes&lt;/span&gt;&lt;/div&gt;" style="text;whiteSpace=wrap;html=1;" vertex="1" parent="1">
          <mxGeometry x="340" y="2760" width="110" height="40" as="geometry" />
        </mxCell>
        <mxCell id="rdlnQNbEjitJNy3FlGEy-202" value="&lt;div style=&quot;text-align: center;&quot;&gt;&lt;span style=&quot;font-size: 11px; text-wrap: nowrap; background-color: rgb(255, 255, 255);&quot;&gt;8: Guardar Modulo Planes&lt;/span&gt;&lt;/div&gt;" style="text;whiteSpace=wrap;html=1;" vertex="1" parent="1">
          <mxGeometry x="560" y="2820" width="110" height="40" as="geometry" />
        </mxCell>
        <mxCell id="rdlnQNbEjitJNy3FlGEy-203" value="Planes" style="shape=umlLifeline;perimeter=lifelinePerimeter;whiteSpace=wrap;html=1;container=0;dropTarget=0;collapsible=0;recursiveResize=0;outlineConnect=0;portConstraint=eastwest;newEdgeStyle={&quot;edgeStyle&quot;:&quot;elbowEdgeStyle&quot;,&quot;elbow&quot;:&quot;vertical&quot;,&quot;curved&quot;:0,&quot;rounded&quot;:0};" vertex="1" parent="1">
          <mxGeometry x="430" y="2580" width="80" height="400" as="geometry" />
        </mxCell>
        <mxCell id="rdlnQNbEjitJNy3FlGEy-204" value="&lt;span style=&quot;color: rgba(0, 0, 0, 0); font-family: monospace; font-size: 0px; text-align: start;&quot;&gt;%3CmxGraphModel%3E%3Croot%3E%3CmxCell%20id%3D%220%22%2F%3E%3CmxCell%20id%3D%221%22%20parent%3D%220%22%2F%3E%3CmxCell%20id%3D%222%22%20value%3D%229%3AAgenda%20Disponible%22%20style%3D%22html%3D1%3BverticalAlign%3Dbottom%3BendArrow%3Dopen%3Bdashed%3D1%3BendSize%3D8%3BedgeStyle%3DelbowEdgeStyle%3Belbow%3Dhorizontal%3Bcurved%3D0%3Brounded%3D0%3BexitX%3D0.5%3BexitY%3D0.885%3BexitDx%3D0%3BexitDy%3D0%3BexitPerimeter%3D0%3BentryX%3D0.545%3BentryY%3D0.885%3BentryDx%3D0%3BentryDy%3D0%3BentryPerimeter%3D0%3B%22%20edge%3D%221%22%20parent%3D%221%22%3E%3CmxGeometry%20relative%3D%221%22%20as%3D%22geometry%22%3E%3CmxPoint%20x%3D%221030%22%20y%3D%22900%22%20as%3D%22targetPoint%22%2F%3E%3CArray%20as%3D%22points%22%3E%3CmxPoint%20x%3D%221135%22%20y%3D%22900%22%2F%3E%3C%2FArray%3E%3CmxPoint%20x%3D%221240%22%20y%3D%22900%22%20as%3D%22sourcePoint%22%2F%3E%3CmxPoint%20as%3D%22offset%22%2F%3E%3C%2FmxGeometry%3E%3C%2FmxCell%3E%3C%2Froot%3E%3C%2FmxGraphModel%3E&lt;/span&gt;" style="html=1;points=[];perimeter=orthogonalPerimeter;outlineConnect=0;targetShapes=umlLifeline;portConstraint=eastwest;newEdgeStyle={&quot;edgeStyle&quot;:&quot;elbowEdgeStyle&quot;,&quot;elbow&quot;:&quot;vertical&quot;,&quot;curved&quot;:0,&quot;rounded&quot;:0};" vertex="1" parent="rdlnQNbEjitJNy3FlGEy-203">
          <mxGeometry x="35" y="40" width="10" height="310" as="geometry" />
        </mxCell>
        <mxCell id="rdlnQNbEjitJNy3FlGEy-205" value="" style="endArrow=classic;html=1;rounded=0;" edge="1" parent="1" target="rdlnQNbEjitJNy3FlGEy-185">
          <mxGeometry width="50" height="50" relative="1" as="geometry">
            <mxPoint x="470" y="2720" as="sourcePoint" />
            <mxPoint x="611" y="2720" as="targetPoint" />
          </mxGeometry>
        </mxCell>
        <mxCell id="rdlnQNbEjitJNy3FlGEy-206" value="" style="html=1;verticalAlign=bottom;endArrow=open;dashed=1;endSize=8;edgeStyle=elbowEdgeStyle;elbow=horizontal;curved=0;rounded=0;" edge="1" parent="1" source="rdlnQNbEjitJNy3FlGEy-186">
          <mxGeometry x="-0.0051" y="-20" relative="1" as="geometry">
            <mxPoint x="470" y="2859" as="targetPoint" />
            <Array as="points">
              <mxPoint x="735" y="2850" />
            </Array>
            <mxPoint x="766.25" y="2859" as="sourcePoint" />
            <mxPoint as="offset" />
          </mxGeometry>
        </mxCell>
        <mxCell id="rdlnQNbEjitJNy3FlGEy-207" value="" style="html=1;verticalAlign=bottom;endArrow=open;dashed=1;endSize=8;edgeStyle=elbowEdgeStyle;elbow=horizontal;curved=0;rounded=0;" edge="1" parent="1">
          <mxGeometry x="-0.0051" y="-20" relative="1" as="geometry">
            <mxPoint x="296.25" y="2900" as="targetPoint" />
            <Array as="points" />
            <mxPoint x="470" y="2900" as="sourcePoint" />
            <mxPoint as="offset" />
          </mxGeometry>
        </mxCell>
        <mxCell id="rdlnQNbEjitJNy3FlGEy-208" value="&lt;div style=&quot;text-align: center;&quot;&gt;&lt;span style=&quot;font-size: 11px; text-wrap: nowrap; background-color: rgb(255, 255, 255);&quot;&gt;9: Planes Guardado&lt;/span&gt;&lt;/div&gt;" style="text;whiteSpace=wrap;html=1;" vertex="1" parent="1">
          <mxGeometry x="335" y="2910" width="110" height="40" as="geometry" />
        </mxCell>
        <mxCell id="rdlnQNbEjitJNy3FlGEy-209" value="" style="html=1;verticalAlign=bottom;endArrow=open;dashed=1;endSize=8;edgeStyle=elbowEdgeStyle;elbow=horizontal;curved=0;rounded=0;" edge="1" parent="1">
          <mxGeometry x="-0.0051" y="-20" relative="1" as="geometry">
            <mxPoint x="140" y="2910" as="targetPoint" />
            <Array as="points" />
            <mxPoint x="300" y="2910" as="sourcePoint" />
            <mxPoint as="offset" />
          </mxGeometry>
        </mxCell>
        <mxCell id="rdlnQNbEjitJNy3FlGEy-237" value="&lt;font style=&quot;vertical-align: inherit;&quot;&gt;&lt;font style=&quot;vertical-align: inherit;&quot;&gt;Administrador&lt;/font&gt;&lt;/font&gt;" style="shape=umlLifeline;perimeter=lifelinePerimeter;whiteSpace=wrap;html=1;container=0;dropTarget=0;collapsible=0;recursiveResize=0;outlineConnect=0;portConstraint=eastwest;newEdgeStyle={&quot;edgeStyle&quot;:&quot;elbowEdgeStyle&quot;,&quot;elbow&quot;:&quot;vertical&quot;,&quot;curved&quot;:0,&quot;rounded&quot;:0};" vertex="1" parent="1">
          <mxGeometry x="80" y="3110" width="120" height="560" as="geometry" />
        </mxCell>
        <mxCell id="rdlnQNbEjitJNy3FlGEy-238" value="Sistema de Gestion" style="shape=umlLifeline;perimeter=lifelinePerimeter;whiteSpace=wrap;html=1;container=0;dropTarget=0;collapsible=0;recursiveResize=0;outlineConnect=0;portConstraint=eastwest;newEdgeStyle={&quot;edgeStyle&quot;:&quot;elbowEdgeStyle&quot;,&quot;elbow&quot;:&quot;vertical&quot;,&quot;curved&quot;:0,&quot;rounded&quot;:0};" vertex="1" parent="1">
          <mxGeometry x="260" y="3110" width="80" height="560" as="geometry" />
        </mxCell>
        <mxCell id="rdlnQNbEjitJNy3FlGEy-239" value="&lt;span style=&quot;color: rgba(0, 0, 0, 0); font-family: monospace; font-size: 0px; text-align: start;&quot;&gt;%3CmxGraphModel%3E%3Croot%3E%3CmxCell%20id%3D%220%22%2F%3E%3CmxCell%20id%3D%221%22%20parent%3D%220%22%2F%3E%3CmxCell%20id%3D%222%22%20value%3D%229%3AAgenda%20Disponible%22%20style%3D%22html%3D1%3BverticalAlign%3Dbottom%3BendArrow%3Dopen%3Bdashed%3D1%3BendSize%3D8%3BedgeStyle%3DelbowEdgeStyle%3Belbow%3Dhorizontal%3Bcurved%3D0%3Brounded%3D0%3BexitX%3D0.5%3BexitY%3D0.885%3BexitDx%3D0%3BexitDy%3D0%3BexitPerimeter%3D0%3BentryX%3D0.545%3BentryY%3D0.885%3BentryDx%3D0%3BentryDy%3D0%3BentryPerimeter%3D0%3B%22%20edge%3D%221%22%20parent%3D%221%22%3E%3CmxGeometry%20relative%3D%221%22%20as%3D%22geometry%22%3E%3CmxPoint%20x%3D%221030%22%20y%3D%22900%22%20as%3D%22targetPoint%22%2F%3E%3CArray%20as%3D%22points%22%3E%3CmxPoint%20x%3D%221135%22%20y%3D%22900%22%2F%3E%3C%2FArray%3E%3CmxPoint%20x%3D%221240%22%20y%3D%22900%22%20as%3D%22sourcePoint%22%2F%3E%3CmxPoint%20as%3D%22offset%22%2F%3E%3C%2FmxGeometry%3E%3C%2FmxCell%3E%3C%2Froot%3E%3C%2FmxGraphModel%3E&lt;/span&gt;" style="html=1;points=[];perimeter=orthogonalPerimeter;outlineConnect=0;targetShapes=umlLifeline;portConstraint=eastwest;newEdgeStyle={&quot;edgeStyle&quot;:&quot;elbowEdgeStyle&quot;,&quot;elbow&quot;:&quot;vertical&quot;,&quot;curved&quot;:0,&quot;rounded&quot;:0};" vertex="1" parent="rdlnQNbEjitJNy3FlGEy-238">
          <mxGeometry x="45" y="70" width="10" height="70" as="geometry" />
        </mxCell>
        <mxCell id="rdlnQNbEjitJNy3FlGEy-240" value="&lt;font style=&quot;vertical-align: inherit;&quot;&gt;&lt;font style=&quot;vertical-align: inherit;&quot;&gt;&lt;font style=&quot;vertical-align: inherit;&quot;&gt;&lt;font style=&quot;vertical-align: inherit;&quot;&gt;Base de Datos&lt;/font&gt;&lt;/font&gt;&lt;/font&gt;&lt;/font&gt;" style="shape=umlLifeline;perimeter=lifelinePerimeter;whiteSpace=wrap;html=1;container=0;dropTarget=0;collapsible=0;recursiveResize=0;outlineConnect=0;portConstraint=eastwest;newEdgeStyle={&quot;edgeStyle&quot;:&quot;elbowEdgeStyle&quot;,&quot;elbow&quot;:&quot;vertical&quot;,&quot;curved&quot;:0,&quot;rounded&quot;:0};" vertex="1" parent="1">
          <mxGeometry x="685" y="3120" width="105" height="560" as="geometry" />
        </mxCell>
        <mxCell id="rdlnQNbEjitJNy3FlGEy-241" value="" style="html=1;points=[];perimeter=orthogonalPerimeter;outlineConnect=0;targetShapes=umlLifeline;portConstraint=eastwest;newEdgeStyle={&quot;edgeStyle&quot;:&quot;elbowEdgeStyle&quot;,&quot;elbow&quot;:&quot;vertical&quot;,&quot;curved&quot;:0,&quot;rounded&quot;:0};" vertex="1" parent="rdlnQNbEjitJNy3FlGEy-240">
          <mxGeometry x="45" y="100" width="10" height="370" as="geometry" />
        </mxCell>
        <mxCell id="rdlnQNbEjitJNy3FlGEy-242" value="" style="html=1;verticalAlign=bottom;endArrow=block;edgeStyle=elbowEdgeStyle;elbow=vertical;curved=0;rounded=0;exitX=0.916;exitY=0.952;exitDx=0;exitDy=0;exitPerimeter=0;" edge="1" parent="1" source="rdlnQNbEjitJNy3FlGEy-245" target="rdlnQNbEjitJNy3FlGEy-240">
          <mxGeometry relative="1" as="geometry">
            <mxPoint x="335" y="3210" as="sourcePoint" />
            <Array as="points">
              <mxPoint x="425" y="3230" />
            </Array>
            <mxPoint x="505" y="3210" as="targetPoint" />
          </mxGeometry>
        </mxCell>
        <mxCell id="rdlnQNbEjitJNy3FlGEy-243" value="&lt;div style=&quot;text-align: center;&quot;&gt;&lt;span style=&quot;font-size: 11px; text-wrap: nowrap; background-color: rgb(255, 255, 255);&quot;&gt;&lt;font style=&quot;vertical-align: inherit;&quot;&gt;&lt;font style=&quot;vertical-align: inherit;&quot;&gt;2:Validacion de Usuario&lt;/font&gt;&lt;/font&gt;&lt;/span&gt;&lt;/div&gt;" style="text;whiteSpace=wrap;html=1;" vertex="1" parent="1">
          <mxGeometry x="350" y="3200" width="110" height="40" as="geometry" />
        </mxCell>
        <mxCell id="rdlnQNbEjitJNy3FlGEy-244" value="" style="html=1;verticalAlign=bottom;endArrow=block;edgeStyle=elbowEdgeStyle;elbow=vertical;curved=0;rounded=0;" edge="1" parent="1" source="rdlnQNbEjitJNy3FlGEy-238" target="rdlnQNbEjitJNy3FlGEy-245">
          <mxGeometry relative="1" as="geometry">
            <mxPoint x="315" y="3210" as="sourcePoint" />
            <Array as="points" />
            <mxPoint x="485" y="3210" as="targetPoint" />
          </mxGeometry>
        </mxCell>
        <mxCell id="rdlnQNbEjitJNy3FlGEy-245" value="&lt;div style=&quot;text-align: center;&quot;&gt;&lt;span style=&quot;font-size: 11px; text-wrap: nowrap; background-color: rgb(255, 255, 255);&quot;&gt;&lt;font style=&quot;vertical-align: inherit;&quot;&gt;&lt;font style=&quot;vertical-align: inherit;&quot;&gt;&lt;font style=&quot;vertical-align: inherit;&quot;&gt;&lt;font style=&quot;vertical-align: inherit;&quot;&gt;1: Inisio de Sesion&lt;/font&gt;&lt;/font&gt;&lt;/font&gt;&lt;/font&gt;&lt;/span&gt;&lt;/div&gt;" style="text;whiteSpace=wrap;html=1;" vertex="1" parent="1">
          <mxGeometry x="135" y="3190" width="200" height="40" as="geometry" />
        </mxCell>
        <mxCell id="rdlnQNbEjitJNy3FlGEy-246" value="" style="html=1;verticalAlign=bottom;endArrow=open;dashed=1;endSize=8;edgeStyle=elbowEdgeStyle;elbow=horizontal;curved=0;rounded=0;" edge="1" parent="1" source="rdlnQNbEjitJNy3FlGEy-241">
          <mxGeometry x="-0.0051" y="-20" relative="1" as="geometry">
            <mxPoint x="302.5" y="3290" as="targetPoint" />
            <Array as="points">
              <mxPoint x="397.5" y="3290" />
            </Array>
            <mxPoint x="497.5" y="3290" as="sourcePoint" />
            <mxPoint as="offset" />
          </mxGeometry>
        </mxCell>
        <mxCell id="rdlnQNbEjitJNy3FlGEy-247" value="" style="endArrow=classic;html=1;rounded=0;entryX=0.878;entryY=0.931;entryDx=0;entryDy=0;entryPerimeter=0;" edge="1" parent="1" source="rdlnQNbEjitJNy3FlGEy-237" target="rdlnQNbEjitJNy3FlGEy-245">
          <mxGeometry width="50" height="50" relative="1" as="geometry">
            <mxPoint x="145" y="3270" as="sourcePoint" />
            <mxPoint x="195" y="3220" as="targetPoint" />
          </mxGeometry>
        </mxCell>
        <mxCell id="rdlnQNbEjitJNy3FlGEy-248" value="&lt;div style=&quot;text-align: center;&quot;&gt;&lt;span style=&quot;font-size: 11px; text-wrap: nowrap; background-color: rgb(255, 255, 255);&quot;&gt;4:Crear Planes&lt;/span&gt;&lt;/div&gt;" style="text;whiteSpace=wrap;html=1;" vertex="1" parent="1">
          <mxGeometry x="140" y="3300" width="130" height="40" as="geometry" />
        </mxCell>
        <mxCell id="rdlnQNbEjitJNy3FlGEy-249" value="" style="endArrow=classic;html=1;rounded=0;" edge="1" parent="1" target="rdlnQNbEjitJNy3FlGEy-259">
          <mxGeometry width="50" height="50" relative="1" as="geometry">
            <mxPoint x="297.25" y="3370" as="sourcePoint" />
            <mxPoint x="512.75" y="3370" as="targetPoint" />
          </mxGeometry>
        </mxCell>
        <mxCell id="rdlnQNbEjitJNy3FlGEy-250" value="&lt;div style=&quot;text-align: center;&quot;&gt;&lt;span style=&quot;font-size: 11px; text-wrap: nowrap; background-color: rgb(255, 255, 255);&quot;&gt;9:Confirmacion de Guardado&lt;/span&gt;&lt;/div&gt;" style="text;whiteSpace=wrap;html=1;" vertex="1" parent="1">
          <mxGeometry x="145" y="3640" width="130" height="40" as="geometry" />
        </mxCell>
        <mxCell id="rdlnQNbEjitJNy3FlGEy-251" value="" style="endArrow=classic;html=1;rounded=0;" edge="1" parent="1">
          <mxGeometry width="50" height="50" relative="1" as="geometry">
            <mxPoint x="140" y="3339" as="sourcePoint" />
            <mxPoint x="301" y="3339" as="targetPoint" />
          </mxGeometry>
        </mxCell>
        <mxCell id="rdlnQNbEjitJNy3FlGEy-252" value="&lt;div style=&quot;text-align: center;&quot;&gt;&lt;span style=&quot;font-size: 11px; text-wrap: nowrap; background-color: rgb(255, 255, 255);&quot;&gt;&lt;font style=&quot;vertical-align: inherit;&quot;&gt;&lt;font style=&quot;vertical-align: inherit;&quot;&gt;5: Validacion de Datos&lt;/font&gt;&lt;/font&gt;&lt;/span&gt;&lt;/div&gt;" style="text;whiteSpace=wrap;html=1;" vertex="1" parent="1">
          <mxGeometry x="320" y="3370" width="110" height="40" as="geometry" />
        </mxCell>
        <mxCell id="rdlnQNbEjitJNy3FlGEy-253" value="&lt;div style=&quot;text-align: center;&quot;&gt;&lt;span style=&quot;font-size: 11px; text-wrap: nowrap; background-color: rgb(255, 255, 255);&quot;&gt;&lt;font style=&quot;vertical-align: inherit;&quot;&gt;&lt;font style=&quot;vertical-align: inherit;&quot;&gt;3:Validacion de Datos&lt;/font&gt;&lt;/font&gt;&lt;/span&gt;&lt;/div&gt;" style="text;whiteSpace=wrap;html=1;" vertex="1" parent="1">
          <mxGeometry x="360" y="3260" width="110" height="40" as="geometry" />
        </mxCell>
        <mxCell id="rdlnQNbEjitJNy3FlGEy-254" value="&lt;div style=&quot;text-align: center;&quot;&gt;&lt;span style=&quot;font-size: 11px; text-wrap: nowrap; background-color: rgb(255, 255, 255);&quot;&gt;6: Datos Validos&lt;/span&gt;&lt;/div&gt;" style="text;whiteSpace=wrap;html=1;" vertex="1" parent="1">
          <mxGeometry x="500" y="3390" width="110" height="40" as="geometry" />
        </mxCell>
        <mxCell id="rdlnQNbEjitJNy3FlGEy-255" value="" style="endArrow=classic;html=1;rounded=0;" edge="1" parent="1" target="rdlnQNbEjitJNy3FlGEy-240">
          <mxGeometry width="50" height="50" relative="1" as="geometry">
            <mxPoint x="304.5" y="3470" as="sourcePoint" />
            <mxPoint x="465.5" y="3470" as="targetPoint" />
          </mxGeometry>
        </mxCell>
        <mxCell id="rdlnQNbEjitJNy3FlGEy-256" value="&lt;div style=&quot;text-align: center;&quot;&gt;&lt;span style=&quot;font-size: 11px; text-wrap: nowrap; background-color: rgb(255, 255, 255);&quot;&gt;7: Guardar Reservas&lt;/span&gt;&lt;/div&gt;" style="text;whiteSpace=wrap;html=1;" vertex="1" parent="1">
          <mxGeometry x="340" y="3470" width="110" height="40" as="geometry" />
        </mxCell>
        <mxCell id="rdlnQNbEjitJNy3FlGEy-257" value="&lt;div style=&quot;text-align: center;&quot;&gt;&lt;span style=&quot;font-size: 11px; text-wrap: nowrap; background-color: rgb(255, 255, 255);&quot;&gt;8: Guardar Modulo Reservas&lt;/span&gt;&lt;/div&gt;" style="text;whiteSpace=wrap;html=1;" vertex="1" parent="1">
          <mxGeometry x="560" y="3530" width="110" height="40" as="geometry" />
        </mxCell>
        <mxCell id="rdlnQNbEjitJNy3FlGEy-258" value="Reservas" style="shape=umlLifeline;perimeter=lifelinePerimeter;whiteSpace=wrap;html=1;container=0;dropTarget=0;collapsible=0;recursiveResize=0;outlineConnect=0;portConstraint=eastwest;newEdgeStyle={&quot;edgeStyle&quot;:&quot;elbowEdgeStyle&quot;,&quot;elbow&quot;:&quot;vertical&quot;,&quot;curved&quot;:0,&quot;rounded&quot;:0};" vertex="1" parent="1">
          <mxGeometry x="430" y="3290" width="80" height="400" as="geometry" />
        </mxCell>
        <mxCell id="rdlnQNbEjitJNy3FlGEy-259" value="&lt;span style=&quot;color: rgba(0, 0, 0, 0); font-family: monospace; font-size: 0px; text-align: start;&quot;&gt;%3CmxGraphModel%3E%3Croot%3E%3CmxCell%20id%3D%220%22%2F%3E%3CmxCell%20id%3D%221%22%20parent%3D%220%22%2F%3E%3CmxCell%20id%3D%222%22%20value%3D%229%3AAgenda%20Disponible%22%20style%3D%22html%3D1%3BverticalAlign%3Dbottom%3BendArrow%3Dopen%3Bdashed%3D1%3BendSize%3D8%3BedgeStyle%3DelbowEdgeStyle%3Belbow%3Dhorizontal%3Bcurved%3D0%3Brounded%3D0%3BexitX%3D0.5%3BexitY%3D0.885%3BexitDx%3D0%3BexitDy%3D0%3BexitPerimeter%3D0%3BentryX%3D0.545%3BentryY%3D0.885%3BentryDx%3D0%3BentryDy%3D0%3BentryPerimeter%3D0%3B%22%20edge%3D%221%22%20parent%3D%221%22%3E%3CmxGeometry%20relative%3D%221%22%20as%3D%22geometry%22%3E%3CmxPoint%20x%3D%221030%22%20y%3D%22900%22%20as%3D%22targetPoint%22%2F%3E%3CArray%20as%3D%22points%22%3E%3CmxPoint%20x%3D%221135%22%20y%3D%22900%22%2F%3E%3C%2FArray%3E%3CmxPoint%20x%3D%221240%22%20y%3D%22900%22%20as%3D%22sourcePoint%22%2F%3E%3CmxPoint%20as%3D%22offset%22%2F%3E%3C%2FmxGeometry%3E%3C%2FmxCell%3E%3C%2Froot%3E%3C%2FmxGraphModel%3E&lt;/span&gt;" style="html=1;points=[];perimeter=orthogonalPerimeter;outlineConnect=0;targetShapes=umlLifeline;portConstraint=eastwest;newEdgeStyle={&quot;edgeStyle&quot;:&quot;elbowEdgeStyle&quot;,&quot;elbow&quot;:&quot;vertical&quot;,&quot;curved&quot;:0,&quot;rounded&quot;:0};" vertex="1" parent="rdlnQNbEjitJNy3FlGEy-258">
          <mxGeometry x="35" y="40" width="10" height="310" as="geometry" />
        </mxCell>
        <mxCell id="rdlnQNbEjitJNy3FlGEy-260" value="" style="endArrow=classic;html=1;rounded=0;" edge="1" parent="1" target="rdlnQNbEjitJNy3FlGEy-240">
          <mxGeometry width="50" height="50" relative="1" as="geometry">
            <mxPoint x="470" y="3430" as="sourcePoint" />
            <mxPoint x="611" y="3430" as="targetPoint" />
          </mxGeometry>
        </mxCell>
        <mxCell id="rdlnQNbEjitJNy3FlGEy-261" value="" style="html=1;verticalAlign=bottom;endArrow=open;dashed=1;endSize=8;edgeStyle=elbowEdgeStyle;elbow=horizontal;curved=0;rounded=0;" edge="1" parent="1" source="rdlnQNbEjitJNy3FlGEy-241">
          <mxGeometry x="-0.0051" y="-20" relative="1" as="geometry">
            <mxPoint x="470" y="3569" as="targetPoint" />
            <Array as="points">
              <mxPoint x="735" y="3560" />
            </Array>
            <mxPoint x="766.25" y="3569" as="sourcePoint" />
            <mxPoint as="offset" />
          </mxGeometry>
        </mxCell>
        <mxCell id="rdlnQNbEjitJNy3FlGEy-262" value="" style="html=1;verticalAlign=bottom;endArrow=open;dashed=1;endSize=8;edgeStyle=elbowEdgeStyle;elbow=horizontal;curved=0;rounded=0;" edge="1" parent="1">
          <mxGeometry x="-0.0051" y="-20" relative="1" as="geometry">
            <mxPoint x="296.25" y="3610" as="targetPoint" />
            <Array as="points" />
            <mxPoint x="470" y="3610" as="sourcePoint" />
            <mxPoint as="offset" />
          </mxGeometry>
        </mxCell>
        <mxCell id="rdlnQNbEjitJNy3FlGEy-263" value="&lt;div style=&quot;text-align: center;&quot;&gt;&lt;span style=&quot;font-size: 11px; text-wrap: nowrap; background-color: rgb(255, 255, 255);&quot;&gt;9: Reservas Guardado&lt;/span&gt;&lt;/div&gt;" style="text;whiteSpace=wrap;html=1;" vertex="1" parent="1">
          <mxGeometry x="335" y="3620" width="110" height="40" as="geometry" />
        </mxCell>
        <mxCell id="rdlnQNbEjitJNy3FlGEy-264" value="" style="html=1;verticalAlign=bottom;endArrow=open;dashed=1;endSize=8;edgeStyle=elbowEdgeStyle;elbow=horizontal;curved=0;rounded=0;" edge="1" parent="1">
          <mxGeometry x="-0.0051" y="-20" relative="1" as="geometry">
            <mxPoint x="140" y="3620" as="targetPoint" />
            <Array as="points" />
            <mxPoint x="300" y="3620" as="sourcePoint" />
            <mxPoint as="offset" />
          </mxGeometry>
        </mxCell>
        <mxCell id="rdlnQNbEjitJNy3FlGEy-265" value="&lt;font style=&quot;vertical-align: inherit;&quot;&gt;&lt;font style=&quot;vertical-align: inherit;&quot;&gt;Administrador&lt;/font&gt;&lt;/font&gt;" style="shape=umlLifeline;perimeter=lifelinePerimeter;whiteSpace=wrap;html=1;container=0;dropTarget=0;collapsible=0;recursiveResize=0;outlineConnect=0;portConstraint=eastwest;newEdgeStyle={&quot;edgeStyle&quot;:&quot;elbowEdgeStyle&quot;,&quot;elbow&quot;:&quot;vertical&quot;,&quot;curved&quot;:0,&quot;rounded&quot;:0};" vertex="1" parent="1">
          <mxGeometry x="885" y="1870" width="120" height="560" as="geometry" />
        </mxCell>
        <mxCell id="rdlnQNbEjitJNy3FlGEy-266" value="Sistema de Gestion" style="shape=umlLifeline;perimeter=lifelinePerimeter;whiteSpace=wrap;html=1;container=0;dropTarget=0;collapsible=0;recursiveResize=0;outlineConnect=0;portConstraint=eastwest;newEdgeStyle={&quot;edgeStyle&quot;:&quot;elbowEdgeStyle&quot;,&quot;elbow&quot;:&quot;vertical&quot;,&quot;curved&quot;:0,&quot;rounded&quot;:0};" vertex="1" parent="1">
          <mxGeometry x="1065" y="1870" width="80" height="560" as="geometry" />
        </mxCell>
        <mxCell id="rdlnQNbEjitJNy3FlGEy-267" value="&lt;span style=&quot;color: rgba(0, 0, 0, 0); font-family: monospace; font-size: 0px; text-align: start;&quot;&gt;%3CmxGraphModel%3E%3Croot%3E%3CmxCell%20id%3D%220%22%2F%3E%3CmxCell%20id%3D%221%22%20parent%3D%220%22%2F%3E%3CmxCell%20id%3D%222%22%20value%3D%229%3AAgenda%20Disponible%22%20style%3D%22html%3D1%3BverticalAlign%3Dbottom%3BendArrow%3Dopen%3Bdashed%3D1%3BendSize%3D8%3BedgeStyle%3DelbowEdgeStyle%3Belbow%3Dhorizontal%3Bcurved%3D0%3Brounded%3D0%3BexitX%3D0.5%3BexitY%3D0.885%3BexitDx%3D0%3BexitDy%3D0%3BexitPerimeter%3D0%3BentryX%3D0.545%3BentryY%3D0.885%3BentryDx%3D0%3BentryDy%3D0%3BentryPerimeter%3D0%3B%22%20edge%3D%221%22%20parent%3D%221%22%3E%3CmxGeometry%20relative%3D%221%22%20as%3D%22geometry%22%3E%3CmxPoint%20x%3D%221030%22%20y%3D%22900%22%20as%3D%22targetPoint%22%2F%3E%3CArray%20as%3D%22points%22%3E%3CmxPoint%20x%3D%221135%22%20y%3D%22900%22%2F%3E%3C%2FArray%3E%3CmxPoint%20x%3D%221240%22%20y%3D%22900%22%20as%3D%22sourcePoint%22%2F%3E%3CmxPoint%20as%3D%22offset%22%2F%3E%3C%2FmxGeometry%3E%3C%2FmxCell%3E%3C%2Froot%3E%3C%2FmxGraphModel%3E&lt;/span&gt;" style="html=1;points=[];perimeter=orthogonalPerimeter;outlineConnect=0;targetShapes=umlLifeline;portConstraint=eastwest;newEdgeStyle={&quot;edgeStyle&quot;:&quot;elbowEdgeStyle&quot;,&quot;elbow&quot;:&quot;vertical&quot;,&quot;curved&quot;:0,&quot;rounded&quot;:0};" vertex="1" parent="rdlnQNbEjitJNy3FlGEy-266">
          <mxGeometry x="45" y="70" width="10" height="70" as="geometry" />
        </mxCell>
        <mxCell id="rdlnQNbEjitJNy3FlGEy-268" value="&lt;font style=&quot;vertical-align: inherit;&quot;&gt;&lt;font style=&quot;vertical-align: inherit;&quot;&gt;&lt;font style=&quot;vertical-align: inherit;&quot;&gt;&lt;font style=&quot;vertical-align: inherit;&quot;&gt;Base de Datos&lt;/font&gt;&lt;/font&gt;&lt;/font&gt;&lt;/font&gt;" style="shape=umlLifeline;perimeter=lifelinePerimeter;whiteSpace=wrap;html=1;container=0;dropTarget=0;collapsible=0;recursiveResize=0;outlineConnect=0;portConstraint=eastwest;newEdgeStyle={&quot;edgeStyle&quot;:&quot;elbowEdgeStyle&quot;,&quot;elbow&quot;:&quot;vertical&quot;,&quot;curved&quot;:0,&quot;rounded&quot;:0};" vertex="1" parent="1">
          <mxGeometry x="1490" y="1880" width="105" height="560" as="geometry" />
        </mxCell>
        <mxCell id="rdlnQNbEjitJNy3FlGEy-269" value="" style="html=1;points=[];perimeter=orthogonalPerimeter;outlineConnect=0;targetShapes=umlLifeline;portConstraint=eastwest;newEdgeStyle={&quot;edgeStyle&quot;:&quot;elbowEdgeStyle&quot;,&quot;elbow&quot;:&quot;vertical&quot;,&quot;curved&quot;:0,&quot;rounded&quot;:0};" vertex="1" parent="rdlnQNbEjitJNy3FlGEy-268">
          <mxGeometry x="45" y="100" width="10" height="370" as="geometry" />
        </mxCell>
        <mxCell id="rdlnQNbEjitJNy3FlGEy-270" value="" style="html=1;verticalAlign=bottom;endArrow=block;edgeStyle=elbowEdgeStyle;elbow=vertical;curved=0;rounded=0;exitX=0.916;exitY=0.952;exitDx=0;exitDy=0;exitPerimeter=0;" edge="1" parent="1" source="rdlnQNbEjitJNy3FlGEy-273" target="rdlnQNbEjitJNy3FlGEy-268">
          <mxGeometry relative="1" as="geometry">
            <mxPoint x="1140" y="1970" as="sourcePoint" />
            <Array as="points">
              <mxPoint x="1230" y="1990" />
            </Array>
            <mxPoint x="1310" y="1970" as="targetPoint" />
          </mxGeometry>
        </mxCell>
        <mxCell id="rdlnQNbEjitJNy3FlGEy-271" value="&lt;div style=&quot;text-align: center;&quot;&gt;&lt;span style=&quot;font-size: 11px; text-wrap: nowrap; background-color: rgb(255, 255, 255);&quot;&gt;&lt;font style=&quot;vertical-align: inherit;&quot;&gt;&lt;font style=&quot;vertical-align: inherit;&quot;&gt;2:Validacion de Usuario&lt;/font&gt;&lt;/font&gt;&lt;/span&gt;&lt;/div&gt;" style="text;whiteSpace=wrap;html=1;" vertex="1" parent="1">
          <mxGeometry x="1155" y="1960" width="110" height="40" as="geometry" />
        </mxCell>
        <mxCell id="rdlnQNbEjitJNy3FlGEy-272" value="" style="html=1;verticalAlign=bottom;endArrow=block;edgeStyle=elbowEdgeStyle;elbow=vertical;curved=0;rounded=0;" edge="1" parent="1" source="rdlnQNbEjitJNy3FlGEy-266" target="rdlnQNbEjitJNy3FlGEy-273">
          <mxGeometry relative="1" as="geometry">
            <mxPoint x="1120" y="1970" as="sourcePoint" />
            <Array as="points" />
            <mxPoint x="1290" y="1970" as="targetPoint" />
          </mxGeometry>
        </mxCell>
        <mxCell id="rdlnQNbEjitJNy3FlGEy-273" value="&lt;div style=&quot;text-align: center;&quot;&gt;&lt;span style=&quot;font-size: 11px; text-wrap: nowrap; background-color: rgb(255, 255, 255);&quot;&gt;&lt;font style=&quot;vertical-align: inherit;&quot;&gt;&lt;font style=&quot;vertical-align: inherit;&quot;&gt;&lt;font style=&quot;vertical-align: inherit;&quot;&gt;&lt;font style=&quot;vertical-align: inherit;&quot;&gt;1: Inisio de Sesion&lt;/font&gt;&lt;/font&gt;&lt;/font&gt;&lt;/font&gt;&lt;/span&gt;&lt;/div&gt;" style="text;whiteSpace=wrap;html=1;" vertex="1" parent="1">
          <mxGeometry x="940" y="1950" width="200" height="40" as="geometry" />
        </mxCell>
        <mxCell id="rdlnQNbEjitJNy3FlGEy-274" value="" style="html=1;verticalAlign=bottom;endArrow=open;dashed=1;endSize=8;edgeStyle=elbowEdgeStyle;elbow=horizontal;curved=0;rounded=0;" edge="1" parent="1" source="rdlnQNbEjitJNy3FlGEy-269">
          <mxGeometry x="-0.0051" y="-20" relative="1" as="geometry">
            <mxPoint x="1107.5" y="2050" as="targetPoint" />
            <Array as="points">
              <mxPoint x="1202.5" y="2050" />
            </Array>
            <mxPoint x="1302.5" y="2050" as="sourcePoint" />
            <mxPoint as="offset" />
          </mxGeometry>
        </mxCell>
        <mxCell id="rdlnQNbEjitJNy3FlGEy-275" value="" style="endArrow=classic;html=1;rounded=0;entryX=0.878;entryY=0.931;entryDx=0;entryDy=0;entryPerimeter=0;" edge="1" parent="1" source="rdlnQNbEjitJNy3FlGEy-265" target="rdlnQNbEjitJNy3FlGEy-273">
          <mxGeometry width="50" height="50" relative="1" as="geometry">
            <mxPoint x="950" y="2030" as="sourcePoint" />
            <mxPoint x="1000" y="1980" as="targetPoint" />
          </mxGeometry>
        </mxCell>
        <mxCell id="rdlnQNbEjitJNy3FlGEy-276" value="&lt;div style=&quot;text-align: center;&quot;&gt;&lt;span style=&quot;font-size: 11px; text-wrap: nowrap; background-color: rgb(255, 255, 255);&quot;&gt;4:Crear Modulo Serviicios Adicionales&lt;/span&gt;&lt;/div&gt;" style="text;whiteSpace=wrap;html=1;" vertex="1" parent="1">
          <mxGeometry x="945" y="2060" width="130" height="40" as="geometry" />
        </mxCell>
        <mxCell id="rdlnQNbEjitJNy3FlGEy-277" value="" style="endArrow=classic;html=1;rounded=0;" edge="1" parent="1" target="rdlnQNbEjitJNy3FlGEy-287">
          <mxGeometry width="50" height="50" relative="1" as="geometry">
            <mxPoint x="1102.25" y="2130" as="sourcePoint" />
            <mxPoint x="1317.75" y="2130" as="targetPoint" />
          </mxGeometry>
        </mxCell>
        <mxCell id="rdlnQNbEjitJNy3FlGEy-278" value="&lt;div style=&quot;text-align: center;&quot;&gt;&lt;span style=&quot;font-size: 11px; text-wrap: nowrap; background-color: rgb(255, 255, 255);&quot;&gt;9:Confirmacion de Guardado&lt;/span&gt;&lt;/div&gt;" style="text;whiteSpace=wrap;html=1;" vertex="1" parent="1">
          <mxGeometry x="950" y="2400" width="130" height="40" as="geometry" />
        </mxCell>
        <mxCell id="rdlnQNbEjitJNy3FlGEy-279" value="" style="endArrow=classic;html=1;rounded=0;" edge="1" parent="1">
          <mxGeometry width="50" height="50" relative="1" as="geometry">
            <mxPoint x="945" y="2099" as="sourcePoint" />
            <mxPoint x="1106" y="2099" as="targetPoint" />
          </mxGeometry>
        </mxCell>
        <mxCell id="rdlnQNbEjitJNy3FlGEy-280" value="&lt;div style=&quot;text-align: center;&quot;&gt;&lt;span style=&quot;font-size: 11px; text-wrap: nowrap; background-color: rgb(255, 255, 255);&quot;&gt;&lt;font style=&quot;vertical-align: inherit;&quot;&gt;&lt;font style=&quot;vertical-align: inherit;&quot;&gt;5: Validacion de Datos&lt;/font&gt;&lt;/font&gt;&lt;/span&gt;&lt;/div&gt;" style="text;whiteSpace=wrap;html=1;" vertex="1" parent="1">
          <mxGeometry x="1125" y="2130" width="110" height="40" as="geometry" />
        </mxCell>
        <mxCell id="rdlnQNbEjitJNy3FlGEy-281" value="&lt;div style=&quot;text-align: center;&quot;&gt;&lt;span style=&quot;font-size: 11px; text-wrap: nowrap; background-color: rgb(255, 255, 255);&quot;&gt;&lt;font style=&quot;vertical-align: inherit;&quot;&gt;&lt;font style=&quot;vertical-align: inherit;&quot;&gt;3:Validacion de Datos&lt;/font&gt;&lt;/font&gt;&lt;/span&gt;&lt;/div&gt;" style="text;whiteSpace=wrap;html=1;" vertex="1" parent="1">
          <mxGeometry x="1165" y="2020" width="110" height="40" as="geometry" />
        </mxCell>
        <mxCell id="rdlnQNbEjitJNy3FlGEy-282" value="&lt;div style=&quot;text-align: center;&quot;&gt;&lt;span style=&quot;font-size: 11px; text-wrap: nowrap; background-color: rgb(255, 255, 255);&quot;&gt;6: Datos Validos&lt;/span&gt;&lt;/div&gt;" style="text;whiteSpace=wrap;html=1;" vertex="1" parent="1">
          <mxGeometry x="1305" y="2150" width="110" height="40" as="geometry" />
        </mxCell>
        <mxCell id="rdlnQNbEjitJNy3FlGEy-283" value="" style="endArrow=classic;html=1;rounded=0;" edge="1" parent="1" target="rdlnQNbEjitJNy3FlGEy-268">
          <mxGeometry width="50" height="50" relative="1" as="geometry">
            <mxPoint x="1109.5" y="2230" as="sourcePoint" />
            <mxPoint x="1270.5" y="2230" as="targetPoint" />
          </mxGeometry>
        </mxCell>
        <mxCell id="rdlnQNbEjitJNy3FlGEy-284" value="&lt;div style=&quot;text-align: center;&quot;&gt;&lt;span style=&quot;font-size: 11px; text-wrap: nowrap; background-color: rgb(255, 255, 255);&quot;&gt;7: Guardar Servios&lt;/span&gt;&lt;/div&gt;" style="text;whiteSpace=wrap;html=1;" vertex="1" parent="1">
          <mxGeometry x="1145" y="2230" width="110" height="40" as="geometry" />
        </mxCell>
        <mxCell id="rdlnQNbEjitJNy3FlGEy-285" value="&lt;div style=&quot;text-align: center;&quot;&gt;&lt;span style=&quot;font-size: 11px; text-wrap: nowrap; background-color: rgb(255, 255, 255);&quot;&gt;8: Guardar Modulo Serviicios Adicionales&lt;/span&gt;&lt;/div&gt;" style="text;whiteSpace=wrap;html=1;" vertex="1" parent="1">
          <mxGeometry x="1365" y="2290" width="110" height="40" as="geometry" />
        </mxCell>
        <mxCell id="rdlnQNbEjitJNy3FlGEy-286" value="Servicios Adicionales" style="shape=umlLifeline;perimeter=lifelinePerimeter;whiteSpace=wrap;html=1;container=0;dropTarget=0;collapsible=0;recursiveResize=0;outlineConnect=0;portConstraint=eastwest;newEdgeStyle={&quot;edgeStyle&quot;:&quot;elbowEdgeStyle&quot;,&quot;elbow&quot;:&quot;vertical&quot;,&quot;curved&quot;:0,&quot;rounded&quot;:0};" vertex="1" parent="1">
          <mxGeometry x="1235" y="2050" width="80" height="400" as="geometry" />
        </mxCell>
        <mxCell id="rdlnQNbEjitJNy3FlGEy-287" value="&lt;span style=&quot;color: rgba(0, 0, 0, 0); font-family: monospace; font-size: 0px; text-align: start;&quot;&gt;%3CmxGraphModel%3E%3Croot%3E%3CmxCell%20id%3D%220%22%2F%3E%3CmxCell%20id%3D%221%22%20parent%3D%220%22%2F%3E%3CmxCell%20id%3D%222%22%20value%3D%229%3AAgenda%20Disponible%22%20style%3D%22html%3D1%3BverticalAlign%3Dbottom%3BendArrow%3Dopen%3Bdashed%3D1%3BendSize%3D8%3BedgeStyle%3DelbowEdgeStyle%3Belbow%3Dhorizontal%3Bcurved%3D0%3Brounded%3D0%3BexitX%3D0.5%3BexitY%3D0.885%3BexitDx%3D0%3BexitDy%3D0%3BexitPerimeter%3D0%3BentryX%3D0.545%3BentryY%3D0.885%3BentryDx%3D0%3BentryDy%3D0%3BentryPerimeter%3D0%3B%22%20edge%3D%221%22%20parent%3D%221%22%3E%3CmxGeometry%20relative%3D%221%22%20as%3D%22geometry%22%3E%3CmxPoint%20x%3D%221030%22%20y%3D%22900%22%20as%3D%22targetPoint%22%2F%3E%3CArray%20as%3D%22points%22%3E%3CmxPoint%20x%3D%221135%22%20y%3D%22900%22%2F%3E%3C%2FArray%3E%3CmxPoint%20x%3D%221240%22%20y%3D%22900%22%20as%3D%22sourcePoint%22%2F%3E%3CmxPoint%20as%3D%22offset%22%2F%3E%3C%2FmxGeometry%3E%3C%2FmxCell%3E%3C%2Froot%3E%3C%2FmxGraphModel%3E&lt;/span&gt;" style="html=1;points=[];perimeter=orthogonalPerimeter;outlineConnect=0;targetShapes=umlLifeline;portConstraint=eastwest;newEdgeStyle={&quot;edgeStyle&quot;:&quot;elbowEdgeStyle&quot;,&quot;elbow&quot;:&quot;vertical&quot;,&quot;curved&quot;:0,&quot;rounded&quot;:0};" vertex="1" parent="rdlnQNbEjitJNy3FlGEy-286">
          <mxGeometry x="35" y="40" width="10" height="310" as="geometry" />
        </mxCell>
        <mxCell id="rdlnQNbEjitJNy3FlGEy-288" value="" style="endArrow=classic;html=1;rounded=0;" edge="1" parent="1" target="rdlnQNbEjitJNy3FlGEy-268">
          <mxGeometry width="50" height="50" relative="1" as="geometry">
            <mxPoint x="1275" y="2190" as="sourcePoint" />
            <mxPoint x="1416" y="2190" as="targetPoint" />
          </mxGeometry>
        </mxCell>
        <mxCell id="rdlnQNbEjitJNy3FlGEy-289" value="" style="html=1;verticalAlign=bottom;endArrow=open;dashed=1;endSize=8;edgeStyle=elbowEdgeStyle;elbow=horizontal;curved=0;rounded=0;" edge="1" parent="1" source="rdlnQNbEjitJNy3FlGEy-269">
          <mxGeometry x="-0.0051" y="-20" relative="1" as="geometry">
            <mxPoint x="1275" y="2329" as="targetPoint" />
            <Array as="points">
              <mxPoint x="1540" y="2320" />
            </Array>
            <mxPoint x="1571.25" y="2329" as="sourcePoint" />
            <mxPoint as="offset" />
          </mxGeometry>
        </mxCell>
        <mxCell id="rdlnQNbEjitJNy3FlGEy-290" value="" style="html=1;verticalAlign=bottom;endArrow=open;dashed=1;endSize=8;edgeStyle=elbowEdgeStyle;elbow=horizontal;curved=0;rounded=0;" edge="1" parent="1">
          <mxGeometry x="-0.0051" y="-20" relative="1" as="geometry">
            <mxPoint x="1101.25" y="2370" as="targetPoint" />
            <Array as="points" />
            <mxPoint x="1275" y="2370" as="sourcePoint" />
            <mxPoint as="offset" />
          </mxGeometry>
        </mxCell>
        <mxCell id="rdlnQNbEjitJNy3FlGEy-291" value="&lt;div style=&quot;text-align: center;&quot;&gt;&lt;span style=&quot;font-size: 11px; text-wrap: nowrap; background-color: rgb(255, 255, 255);&quot;&gt;9: Servicios Adicionales&lt;/span&gt;&lt;/div&gt;" style="text;whiteSpace=wrap;html=1;" vertex="1" parent="1">
          <mxGeometry x="1140" y="2380" width="110" height="40" as="geometry" />
        </mxCell>
        <mxCell id="rdlnQNbEjitJNy3FlGEy-292" value="" style="html=1;verticalAlign=bottom;endArrow=open;dashed=1;endSize=8;edgeStyle=elbowEdgeStyle;elbow=horizontal;curved=0;rounded=0;" edge="1" parent="1">
          <mxGeometry x="-0.0051" y="-20" relative="1" as="geometry">
            <mxPoint x="945" y="2380" as="targetPoint" />
            <Array as="points" />
            <mxPoint x="1105" y="2380" as="sourcePoint" />
            <mxPoint as="offset" />
          </mxGeometry>
        </mxCell>
        <mxCell id="rdlnQNbEjitJNy3FlGEy-345" value="&lt;font style=&quot;vertical-align: inherit;&quot;&gt;&lt;font style=&quot;vertical-align: inherit;&quot;&gt;Administrador&lt;/font&gt;&lt;/font&gt;" style="shape=umlLifeline;perimeter=lifelinePerimeter;whiteSpace=wrap;html=1;container=0;dropTarget=0;collapsible=0;recursiveResize=0;outlineConnect=0;portConstraint=eastwest;newEdgeStyle={&quot;edgeStyle&quot;:&quot;elbowEdgeStyle&quot;,&quot;elbow&quot;:&quot;vertical&quot;,&quot;curved&quot;:0,&quot;rounded&quot;:0};" vertex="1" parent="1">
          <mxGeometry x="880" y="2520" width="120" height="560" as="geometry" />
        </mxCell>
        <mxCell id="rdlnQNbEjitJNy3FlGEy-346" value="Sistema de Gestion" style="shape=umlLifeline;perimeter=lifelinePerimeter;whiteSpace=wrap;html=1;container=0;dropTarget=0;collapsible=0;recursiveResize=0;outlineConnect=0;portConstraint=eastwest;newEdgeStyle={&quot;edgeStyle&quot;:&quot;elbowEdgeStyle&quot;,&quot;elbow&quot;:&quot;vertical&quot;,&quot;curved&quot;:0,&quot;rounded&quot;:0};" vertex="1" parent="1">
          <mxGeometry x="1060" y="2520" width="80" height="560" as="geometry" />
        </mxCell>
        <mxCell id="rdlnQNbEjitJNy3FlGEy-347" value="&lt;span style=&quot;color: rgba(0, 0, 0, 0); font-family: monospace; font-size: 0px; text-align: start;&quot;&gt;%3CmxGraphModel%3E%3Croot%3E%3CmxCell%20id%3D%220%22%2F%3E%3CmxCell%20id%3D%221%22%20parent%3D%220%22%2F%3E%3CmxCell%20id%3D%222%22%20value%3D%229%3AAgenda%20Disponible%22%20style%3D%22html%3D1%3BverticalAlign%3Dbottom%3BendArrow%3Dopen%3Bdashed%3D1%3BendSize%3D8%3BedgeStyle%3DelbowEdgeStyle%3Belbow%3Dhorizontal%3Bcurved%3D0%3Brounded%3D0%3BexitX%3D0.5%3BexitY%3D0.885%3BexitDx%3D0%3BexitDy%3D0%3BexitPerimeter%3D0%3BentryX%3D0.545%3BentryY%3D0.885%3BentryDx%3D0%3BentryDy%3D0%3BentryPerimeter%3D0%3B%22%20edge%3D%221%22%20parent%3D%221%22%3E%3CmxGeometry%20relative%3D%221%22%20as%3D%22geometry%22%3E%3CmxPoint%20x%3D%221030%22%20y%3D%22900%22%20as%3D%22targetPoint%22%2F%3E%3CArray%20as%3D%22points%22%3E%3CmxPoint%20x%3D%221135%22%20y%3D%22900%22%2F%3E%3C%2FArray%3E%3CmxPoint%20x%3D%221240%22%20y%3D%22900%22%20as%3D%22sourcePoint%22%2F%3E%3CmxPoint%20as%3D%22offset%22%2F%3E%3C%2FmxGeometry%3E%3C%2FmxCell%3E%3C%2Froot%3E%3C%2FmxGraphModel%3E&lt;/span&gt;" style="html=1;points=[];perimeter=orthogonalPerimeter;outlineConnect=0;targetShapes=umlLifeline;portConstraint=eastwest;newEdgeStyle={&quot;edgeStyle&quot;:&quot;elbowEdgeStyle&quot;,&quot;elbow&quot;:&quot;vertical&quot;,&quot;curved&quot;:0,&quot;rounded&quot;:0};" vertex="1" parent="rdlnQNbEjitJNy3FlGEy-346">
          <mxGeometry x="45" y="70" width="10" height="70" as="geometry" />
        </mxCell>
        <mxCell id="rdlnQNbEjitJNy3FlGEy-348" value="&lt;font style=&quot;vertical-align: inherit;&quot;&gt;&lt;font style=&quot;vertical-align: inherit;&quot;&gt;&lt;font style=&quot;vertical-align: inherit;&quot;&gt;&lt;font style=&quot;vertical-align: inherit;&quot;&gt;Base de Datos&lt;/font&gt;&lt;/font&gt;&lt;/font&gt;&lt;/font&gt;" style="shape=umlLifeline;perimeter=lifelinePerimeter;whiteSpace=wrap;html=1;container=0;dropTarget=0;collapsible=0;recursiveResize=0;outlineConnect=0;portConstraint=eastwest;newEdgeStyle={&quot;edgeStyle&quot;:&quot;elbowEdgeStyle&quot;,&quot;elbow&quot;:&quot;vertical&quot;,&quot;curved&quot;:0,&quot;rounded&quot;:0};" vertex="1" parent="1">
          <mxGeometry x="1485" y="2530" width="105" height="560" as="geometry" />
        </mxCell>
        <mxCell id="rdlnQNbEjitJNy3FlGEy-349" value="" style="html=1;points=[];perimeter=orthogonalPerimeter;outlineConnect=0;targetShapes=umlLifeline;portConstraint=eastwest;newEdgeStyle={&quot;edgeStyle&quot;:&quot;elbowEdgeStyle&quot;,&quot;elbow&quot;:&quot;vertical&quot;,&quot;curved&quot;:0,&quot;rounded&quot;:0};" vertex="1" parent="rdlnQNbEjitJNy3FlGEy-348">
          <mxGeometry x="45" y="100" width="10" height="370" as="geometry" />
        </mxCell>
        <mxCell id="rdlnQNbEjitJNy3FlGEy-350" value="" style="html=1;verticalAlign=bottom;endArrow=block;edgeStyle=elbowEdgeStyle;elbow=vertical;curved=0;rounded=0;exitX=0.916;exitY=0.952;exitDx=0;exitDy=0;exitPerimeter=0;" edge="1" parent="1" source="rdlnQNbEjitJNy3FlGEy-353" target="rdlnQNbEjitJNy3FlGEy-348">
          <mxGeometry relative="1" as="geometry">
            <mxPoint x="1135" y="2620" as="sourcePoint" />
            <Array as="points">
              <mxPoint x="1225" y="2640" />
            </Array>
            <mxPoint x="1305" y="2620" as="targetPoint" />
          </mxGeometry>
        </mxCell>
        <mxCell id="rdlnQNbEjitJNy3FlGEy-351" value="&lt;div style=&quot;text-align: center;&quot;&gt;&lt;span style=&quot;font-size: 11px; text-wrap: nowrap; background-color: rgb(255, 255, 255);&quot;&gt;&lt;font style=&quot;vertical-align: inherit;&quot;&gt;&lt;font style=&quot;vertical-align: inherit;&quot;&gt;2:Validacion de Usuario&lt;/font&gt;&lt;/font&gt;&lt;/span&gt;&lt;/div&gt;" style="text;whiteSpace=wrap;html=1;" vertex="1" parent="1">
          <mxGeometry x="1150" y="2610" width="110" height="40" as="geometry" />
        </mxCell>
        <mxCell id="rdlnQNbEjitJNy3FlGEy-352" value="" style="html=1;verticalAlign=bottom;endArrow=block;edgeStyle=elbowEdgeStyle;elbow=vertical;curved=0;rounded=0;" edge="1" parent="1" source="rdlnQNbEjitJNy3FlGEy-346" target="rdlnQNbEjitJNy3FlGEy-353">
          <mxGeometry relative="1" as="geometry">
            <mxPoint x="1115" y="2620" as="sourcePoint" />
            <Array as="points" />
            <mxPoint x="1285" y="2620" as="targetPoint" />
          </mxGeometry>
        </mxCell>
        <mxCell id="rdlnQNbEjitJNy3FlGEy-353" value="&lt;div style=&quot;text-align: center;&quot;&gt;&lt;span style=&quot;font-size: 11px; text-wrap: nowrap; background-color: rgb(255, 255, 255);&quot;&gt;&lt;font style=&quot;vertical-align: inherit;&quot;&gt;&lt;font style=&quot;vertical-align: inherit;&quot;&gt;&lt;font style=&quot;vertical-align: inherit;&quot;&gt;&lt;font style=&quot;vertical-align: inherit;&quot;&gt;1: Inisio de Sesion&lt;/font&gt;&lt;/font&gt;&lt;/font&gt;&lt;/font&gt;&lt;/span&gt;&lt;/div&gt;" style="text;whiteSpace=wrap;html=1;" vertex="1" parent="1">
          <mxGeometry x="935" y="2600" width="200" height="40" as="geometry" />
        </mxCell>
        <mxCell id="rdlnQNbEjitJNy3FlGEy-354" value="" style="html=1;verticalAlign=bottom;endArrow=open;dashed=1;endSize=8;edgeStyle=elbowEdgeStyle;elbow=horizontal;curved=0;rounded=0;" edge="1" parent="1" source="rdlnQNbEjitJNy3FlGEy-349">
          <mxGeometry x="-0.0051" y="-20" relative="1" as="geometry">
            <mxPoint x="1102.5" y="2700" as="targetPoint" />
            <Array as="points">
              <mxPoint x="1197.5" y="2700" />
            </Array>
            <mxPoint x="1297.5" y="2700" as="sourcePoint" />
            <mxPoint as="offset" />
          </mxGeometry>
        </mxCell>
        <mxCell id="rdlnQNbEjitJNy3FlGEy-355" value="" style="endArrow=classic;html=1;rounded=0;entryX=0.878;entryY=0.931;entryDx=0;entryDy=0;entryPerimeter=0;" edge="1" parent="1" source="rdlnQNbEjitJNy3FlGEy-345" target="rdlnQNbEjitJNy3FlGEy-353">
          <mxGeometry width="50" height="50" relative="1" as="geometry">
            <mxPoint x="945" y="2680" as="sourcePoint" />
            <mxPoint x="995" y="2630" as="targetPoint" />
          </mxGeometry>
        </mxCell>
        <mxCell id="rdlnQNbEjitJNy3FlGEy-356" value="&lt;div style=&quot;text-align: center;&quot;&gt;&lt;span style=&quot;font-size: 11px; text-wrap: nowrap; background-color: rgb(255, 255, 255);&quot;&gt;4:Crear Modulo&amp;nbsp; De Reportes&lt;/span&gt;&lt;/div&gt;" style="text;whiteSpace=wrap;html=1;" vertex="1" parent="1">
          <mxGeometry x="940" y="2710" width="130" height="40" as="geometry" />
        </mxCell>
        <mxCell id="rdlnQNbEjitJNy3FlGEy-357" value="" style="endArrow=classic;html=1;rounded=0;" edge="1" parent="1" target="rdlnQNbEjitJNy3FlGEy-367">
          <mxGeometry width="50" height="50" relative="1" as="geometry">
            <mxPoint x="1097.25" y="2780" as="sourcePoint" />
            <mxPoint x="1312.75" y="2780" as="targetPoint" />
          </mxGeometry>
        </mxCell>
        <mxCell id="rdlnQNbEjitJNy3FlGEy-358" value="&lt;div style=&quot;text-align: center;&quot;&gt;&lt;span style=&quot;font-size: 11px; text-wrap: nowrap; background-color: rgb(255, 255, 255);&quot;&gt;9:Confirmacion de Guardado&lt;/span&gt;&lt;/div&gt;" style="text;whiteSpace=wrap;html=1;" vertex="1" parent="1">
          <mxGeometry x="945" y="3050" width="130" height="40" as="geometry" />
        </mxCell>
        <mxCell id="rdlnQNbEjitJNy3FlGEy-359" value="" style="endArrow=classic;html=1;rounded=0;" edge="1" parent="1">
          <mxGeometry width="50" height="50" relative="1" as="geometry">
            <mxPoint x="940" y="2749" as="sourcePoint" />
            <mxPoint x="1101" y="2749" as="targetPoint" />
          </mxGeometry>
        </mxCell>
        <mxCell id="rdlnQNbEjitJNy3FlGEy-360" value="&lt;div style=&quot;text-align: center;&quot;&gt;&lt;span style=&quot;font-size: 11px; text-wrap: nowrap; background-color: rgb(255, 255, 255);&quot;&gt;&lt;font style=&quot;vertical-align: inherit;&quot;&gt;&lt;font style=&quot;vertical-align: inherit;&quot;&gt;5: Validacion de Datos&lt;/font&gt;&lt;/font&gt;&lt;/span&gt;&lt;/div&gt;" style="text;whiteSpace=wrap;html=1;" vertex="1" parent="1">
          <mxGeometry x="1120" y="2780" width="110" height="40" as="geometry" />
        </mxCell>
        <mxCell id="rdlnQNbEjitJNy3FlGEy-361" value="&lt;div style=&quot;text-align: center;&quot;&gt;&lt;span style=&quot;font-size: 11px; text-wrap: nowrap; background-color: rgb(255, 255, 255);&quot;&gt;&lt;font style=&quot;vertical-align: inherit;&quot;&gt;&lt;font style=&quot;vertical-align: inherit;&quot;&gt;3:Validacion de Datos&lt;/font&gt;&lt;/font&gt;&lt;/span&gt;&lt;/div&gt;" style="text;whiteSpace=wrap;html=1;" vertex="1" parent="1">
          <mxGeometry x="1160" y="2670" width="110" height="40" as="geometry" />
        </mxCell>
        <mxCell id="rdlnQNbEjitJNy3FlGEy-362" value="&lt;div style=&quot;text-align: center;&quot;&gt;&lt;span style=&quot;font-size: 11px; text-wrap: nowrap; background-color: rgb(255, 255, 255);&quot;&gt;6: Datos Validos&lt;/span&gt;&lt;/div&gt;" style="text;whiteSpace=wrap;html=1;" vertex="1" parent="1">
          <mxGeometry x="1300" y="2800" width="110" height="40" as="geometry" />
        </mxCell>
        <mxCell id="rdlnQNbEjitJNy3FlGEy-363" value="" style="endArrow=classic;html=1;rounded=0;" edge="1" parent="1" target="rdlnQNbEjitJNy3FlGEy-348">
          <mxGeometry width="50" height="50" relative="1" as="geometry">
            <mxPoint x="1104.5" y="2880" as="sourcePoint" />
            <mxPoint x="1265.5" y="2880" as="targetPoint" />
          </mxGeometry>
        </mxCell>
        <mxCell id="rdlnQNbEjitJNy3FlGEy-364" value="&lt;div style=&quot;text-align: center;&quot;&gt;&lt;span style=&quot;font-size: 11px; text-wrap: nowrap; background-color: rgb(255, 255, 255);&quot;&gt;7: Guardar Modulo de Reportes&lt;/span&gt;&lt;/div&gt;" style="text;whiteSpace=wrap;html=1;" vertex="1" parent="1">
          <mxGeometry x="1140" y="2880" width="110" height="40" as="geometry" />
        </mxCell>
        <mxCell id="rdlnQNbEjitJNy3FlGEy-365" value="&lt;div style=&quot;text-align: center;&quot;&gt;&lt;span style=&quot;font-size: 11px; text-wrap: nowrap; background-color: rgb(255, 255, 255);&quot;&gt;8: Guardar Modulo Reportes&lt;/span&gt;&lt;/div&gt;" style="text;whiteSpace=wrap;html=1;" vertex="1" parent="1">
          <mxGeometry x="1360" y="2940" width="110" height="40" as="geometry" />
        </mxCell>
        <mxCell id="rdlnQNbEjitJNy3FlGEy-366" value="Moculo De Reportes" style="shape=umlLifeline;perimeter=lifelinePerimeter;whiteSpace=wrap;html=1;container=0;dropTarget=0;collapsible=0;recursiveResize=0;outlineConnect=0;portConstraint=eastwest;newEdgeStyle={&quot;edgeStyle&quot;:&quot;elbowEdgeStyle&quot;,&quot;elbow&quot;:&quot;vertical&quot;,&quot;curved&quot;:0,&quot;rounded&quot;:0};" vertex="1" parent="1">
          <mxGeometry x="1230" y="2700" width="80" height="400" as="geometry" />
        </mxCell>
        <mxCell id="rdlnQNbEjitJNy3FlGEy-367" value="&lt;span style=&quot;color: rgba(0, 0, 0, 0); font-family: monospace; font-size: 0px; text-align: start;&quot;&gt;%3CmxGraphModel%3E%3Croot%3E%3CmxCell%20id%3D%220%22%2F%3E%3CmxCell%20id%3D%221%22%20parent%3D%220%22%2F%3E%3CmxCell%20id%3D%222%22%20value%3D%229%3AAgenda%20Disponible%22%20style%3D%22html%3D1%3BverticalAlign%3Dbottom%3BendArrow%3Dopen%3Bdashed%3D1%3BendSize%3D8%3BedgeStyle%3DelbowEdgeStyle%3Belbow%3Dhorizontal%3Bcurved%3D0%3Brounded%3D0%3BexitX%3D0.5%3BexitY%3D0.885%3BexitDx%3D0%3BexitDy%3D0%3BexitPerimeter%3D0%3BentryX%3D0.545%3BentryY%3D0.885%3BentryDx%3D0%3BentryDy%3D0%3BentryPerimeter%3D0%3B%22%20edge%3D%221%22%20parent%3D%221%22%3E%3CmxGeometry%20relative%3D%221%22%20as%3D%22geometry%22%3E%3CmxPoint%20x%3D%221030%22%20y%3D%22900%22%20as%3D%22targetPoint%22%2F%3E%3CArray%20as%3D%22points%22%3E%3CmxPoint%20x%3D%221135%22%20y%3D%22900%22%2F%3E%3C%2FArray%3E%3CmxPoint%20x%3D%221240%22%20y%3D%22900%22%20as%3D%22sourcePoint%22%2F%3E%3CmxPoint%20as%3D%22offset%22%2F%3E%3C%2FmxGeometry%3E%3C%2FmxCell%3E%3C%2Froot%3E%3C%2FmxGraphModel%3E&lt;/span&gt;" style="html=1;points=[];perimeter=orthogonalPerimeter;outlineConnect=0;targetShapes=umlLifeline;portConstraint=eastwest;newEdgeStyle={&quot;edgeStyle&quot;:&quot;elbowEdgeStyle&quot;,&quot;elbow&quot;:&quot;vertical&quot;,&quot;curved&quot;:0,&quot;rounded&quot;:0};" vertex="1" parent="rdlnQNbEjitJNy3FlGEy-366">
          <mxGeometry x="35" y="40" width="10" height="310" as="geometry" />
        </mxCell>
        <mxCell id="rdlnQNbEjitJNy3FlGEy-368" value="" style="endArrow=classic;html=1;rounded=0;" edge="1" parent="1" target="rdlnQNbEjitJNy3FlGEy-348">
          <mxGeometry width="50" height="50" relative="1" as="geometry">
            <mxPoint x="1270" y="2840" as="sourcePoint" />
            <mxPoint x="1411" y="2840" as="targetPoint" />
          </mxGeometry>
        </mxCell>
        <mxCell id="rdlnQNbEjitJNy3FlGEy-369" value="" style="html=1;verticalAlign=bottom;endArrow=open;dashed=1;endSize=8;edgeStyle=elbowEdgeStyle;elbow=horizontal;curved=0;rounded=0;" edge="1" parent="1" source="rdlnQNbEjitJNy3FlGEy-349">
          <mxGeometry x="-0.0051" y="-20" relative="1" as="geometry">
            <mxPoint x="1270" y="2979" as="targetPoint" />
            <Array as="points">
              <mxPoint x="1535" y="2970" />
            </Array>
            <mxPoint x="1566.25" y="2979" as="sourcePoint" />
            <mxPoint as="offset" />
          </mxGeometry>
        </mxCell>
        <mxCell id="rdlnQNbEjitJNy3FlGEy-370" value="" style="html=1;verticalAlign=bottom;endArrow=open;dashed=1;endSize=8;edgeStyle=elbowEdgeStyle;elbow=horizontal;curved=0;rounded=0;" edge="1" parent="1">
          <mxGeometry x="-0.0051" y="-20" relative="1" as="geometry">
            <mxPoint x="1096.25" y="3020" as="targetPoint" />
            <Array as="points" />
            <mxPoint x="1270" y="3020" as="sourcePoint" />
            <mxPoint as="offset" />
          </mxGeometry>
        </mxCell>
        <mxCell id="rdlnQNbEjitJNy3FlGEy-371" value="&lt;div style=&quot;text-align: center;&quot;&gt;&lt;span style=&quot;font-size: 11px; text-wrap: nowrap; background-color: rgb(255, 255, 255);&quot;&gt;9: Servicios Adicionales&lt;/span&gt;&lt;/div&gt;" style="text;whiteSpace=wrap;html=1;" vertex="1" parent="1">
          <mxGeometry x="1135" y="3030" width="110" height="40" as="geometry" />
        </mxCell>
        <mxCell id="rdlnQNbEjitJNy3FlGEy-372" value="" style="html=1;verticalAlign=bottom;endArrow=open;dashed=1;endSize=8;edgeStyle=elbowEdgeStyle;elbow=horizontal;curved=0;rounded=0;" edge="1" parent="1">
          <mxGeometry x="-0.0051" y="-20" relative="1" as="geometry">
            <mxPoint x="940" y="3030" as="targetPoint" />
            <Array as="points" />
            <mxPoint x="1100" y="3030" as="sourcePoint" />
            <mxPoint as="offset" />
          </mxGeometry>
        </mxCell>
      </root>
    </mxGraphModel>
  </diagram>
</mxfile>
